<?xml version="1.0" encoding="UTF-8"?>
<svg version="1.1" xmlns="http://www.w3.org/2000/svg" width="1200" height="440">
<path d="M0 0 C0 0.66 0 1.32 0 2 C-0.66386719 2.29132812 -1.32773438 2.58265625 -2.01171875 2.8828125 C-7.69291197 5.52021315 -11.75306058 7.55352097 -15 13 C-15.65024288 16.00491027 -15.92494614 18.92961481 -16 22 C-15.01 22.66 -14.02 23.32 -13 24 C-12.62875 22.6696875 -12.62875 22.6696875 -12.25 21.3125 C-10.17991997 15.82678791 -7.27121343 12.60112413 -2.04296875 9.84765625 C5.0346571 6.9110505 12.44384092 6.71061518 20 7 C19.67 7.99 19.34 8.98 19 10 C17.04978384 10.72719924 15.09767389 11.45007364 13.1328125 12.13671875 C9.05145961 13.78869492 5.93255711 16.10673311 3.96484375 20.1015625 C3.22894307 22.03886382 2.60472914 24.01783228 2 26 C-0.97 26 -3.94 26 -7 26 C-6.07960937 26.3403125 -5.15921875 26.680625 -4.2109375 27.03125 C30.29033544 40.09907827 51.99595108 65.98210149 67.48339844 98.95239258 C78.63280305 123.96766079 80.90221476 152.69945896 73 179 C72.72091797 179.93118652 72.44183594 180.86237305 72.15429688 181.82177734 C63.89977446 208.76289111 52.50634058 234.037197 36 257 C35.50419434 257.69512695 35.00838867 258.39025391 34.49755859 259.10644531 C25.05783119 272.30057844 15.30823159 285.23626066 3.5234375 296.44921875 C1.77985373 298.12721691 1.77985373 298.12721691 0 301 C-0.66 301 -1.32 301 -2 301 C-2.33 301.99 -2.66 302.98 -3 304 C-4.6015625 305.578125 -4.6015625 305.578125 -6.625 307.25 C-9.318058 309.52837474 -11.86928911 311.83122111 -14.3125 314.375 C-18.86904698 318.99298356 -23.93952071 322.95288327 -29 327 C-30.11383534 327.90426584 -31.22709704 328.80923863 -32.33984375 329.71484375 C-40.29925716 336.16723385 -48.42975634 342.36284822 -56.64379883 348.48706055 C-63.85936632 353.8728994 -70.95896461 359.38861647 -78 365 C-79.01578125 365.80953125 -80.0315625 366.6190625 -81.078125 367.453125 C-83.38822639 369.29862499 -85.69582814 371.14710604 -88 373 C-88 355.85554589 -64.14821026 333.51747264 -53.34277344 321.04370117 C-50.30664757 317.53854417 -47.34562301 313.98812253 -44.4375 310.375 C-41.25751251 306.45320711 -37.93571933 302.69763515 -34.5 299 C-29.4166881 293.52702042 -24.66085483 287.83877996 -20 282 C-19.22914063 281.03964844 -18.45828125 280.07929688 -17.6640625 279.08984375 C-15.77200098 276.72974596 -13.88399216 274.36654056 -12 272 C-28.44775304 280.73273914 -43.22586988 292.54466957 -57 305 C-57.7425 305.6703125 -58.485 306.340625 -59.25 307.03125 C-66.19660624 313.64173014 -72.87437567 321.61817787 -77.69921875 329.92578125 C-78.12847656 330.61027344 -78.55773437 331.29476563 -79 332 C-79.66 332 -80.32 332 -81 332 C-79.17375497 325.1410157 -76.79965983 318.99653906 -73.4375 312.75 C-72.99841309 311.92862549 -72.55932617 311.10725098 -72.10693359 310.26098633 C-61.38318851 290.61736551 -46.07826824 274.71782741 -30.13354492 259.25 C-12.88829852 242.47969391 0.20956322 225.98369995 5 202 C4.27296875 203.45019531 4.27296875 203.45019531 3.53125 204.9296875 C-0.60313872 213.02033936 -4.98572848 220.13003944 -11 227 C-11.55171875 227.68320313 -12.1034375 228.36640625 -12.671875 229.0703125 C-25.8741884 245.10169306 -45.53445109 255.37789892 -64.40234375 263.2890625 C-65.33038818 263.67835938 -66.25843262 264.06765625 -67.21459961 264.46875 C-69.0190456 265.21779516 -70.82824419 265.95553255 -72.64282227 266.6796875 C-88.69100599 273.2818761 -98.81079871 285.88035895 -105.54199219 301.60546875 C-110.79675184 314.52591706 -113.19263759 327.53279893 -113.0625 341.4375 C-113.05798828 342.35982422 -113.05347656 343.28214844 -113.04882812 344.23242188 C-113.03713938 346.48835048 -113.02075455 348.74413967 -113 351 C-113.66 351 -114.32 351 -115 351 C-122.9093759 314.13932365 -116.61416119 279.27415126 -97 247 C-92.21235595 239.73568495 -86.93086681 232.82371365 -81.640625 225.921875 C-72.54268693 213.86181756 -66.78085099 202.37869388 -68 187 C-69.74187383 178.9936763 -73.58565657 173.03378103 -79 167 C-79.5465625 166.38382813 -80.093125 165.76765625 -80.65625 165.1328125 C-96.04096018 148.80470028 -117.67322286 141.91538325 -138.72338867 136.44750977 C-159.50213832 131.04142583 -179.7620864 124.45378972 -191.75 105.1875 C-193.32863561 101.1619792 -193.22224084 98.2966563 -193 94 C-189.01716867 92.67238956 -186.16644291 93.74200561 -182.25 94.8125 C-181.4357959 95.02898193 -180.6215918 95.24546387 -179.78271484 95.46850586 C-172.31519113 97.51456112 -164.98639476 99.95652015 -157.64083862 102.39440918 C-123.04176294 113.86126203 -92.66196858 114.57235433 -57.0690918 106.71411133 C-39.61417003 102.86202164 -22.36710497 102.68060405 -5 107 C-3.33516519 107.34236522 -1.66913442 107.67925215 0 108 C-22.51916541 95.39524591 -44.86286056 99.23970295 -68.8125 104.5625 C-105.03514525 112.57341991 -136.64301367 107.72691571 -171.6328125 97.18359375 C-178.06925645 95.24539557 -184.54003778 93.50076146 -191.04638672 91.81665039 C-194 91 -194 91 -196 90 C-199.56588608 81.90314859 -200.47744664 73.43904987 -197.5 65.0625 C-192.07474835 52.95119878 -185.23001435 46.61183955 -173.2902832 41.57568359 C-172.59636475 41.28258301 -171.90244629 40.98948242 -171.1875 40.6875 C-170.4864917 40.39182129 -169.7854834 40.09614258 -169.06323242 39.79150391 C-162.67809656 37.01974246 -157.48175853 33.2688407 -152 29 C-130.92919945 13.60904238 -113.44473368 12.47300721 -88 16 C-88 16.66 -88 17.32 -88 18 C-88.8971875 18.268125 -89.794375 18.53625 -90.71875 18.8125 C-101.69251791 22.25880728 -112.38440173 26.58960115 -122 33 C-115.2610172 30.59235623 -108.77146318 27.94170727 -102.35571289 24.78344727 C-87.87643949 17.66310813 -72.94878588 12.13967776 -56.93359375 9.80078125 C-53.52267598 8.86970516 -52.30774101 7.61006515 -50 5 C-44.16497749 1.78478352 -38.59238873 1.34571297 -32 1 C-33.06457357 3.23097591 -33.9966101 4.99608857 -35.625 6.875 C-37.43937089 9.67902774 -37.2230809 11.72814677 -37 15 C-36.01 15.33 -35.02 15.66 -34 16 C-33.62875 15.11828125 -33.62875 15.11828125 -33.25 14.21875 C-29.21535714 7.05725892 -20.51652529 3.34247877 -13 1 C-8.62405897 -0.02963318 -4.48861938 -0.08977239 0 0 Z M-88.46289062 32.06079102 C-95.58588356 35.99567018 -102.99985125 38.51260772 -111 40 C-111 40.33 -111 40.66 -111 41 C-99.03328083 41.55515707 -90.73006079 38.82405727 -80 33.9375 C-69.13300363 29.03121472 -60.94135009 27.74223134 -49.0546875 28.703125 C-41.69432039 29.28466757 -34.23098666 29.66563861 -27 28 C-27 27.67 -27 27.34 -27 27 C-49.76974452 22.22175307 -67.49677726 20.35758411 -88.46289062 32.06079102 Z M0 35 C1 37 1 37 1 37 Z M-89.75390625 43.59765625 C-98.62619555 47.10743564 -107.78936362 49.55342471 -117 52 C-117 52.33 -117 52.66 -117 53 C-115.39108196 53.32178361 -113.78214104 53.64345313 -112.1730957 53.96459961 C-110.80143682 54.23945461 -109.43018109 54.51632884 -108.05932617 54.79516602 C-105.01647843 55.41177043 -101.98252956 56.00285638 -98.91796875 56.50390625 C-93.82453543 57.35153908 -91.54270843 58.0908045 -88 62 C-82.52155578 64.21244863 -78.65315188 64.1853383 -73 63 C-68.31505647 60.87048021 -65.29980554 57.59961109 -63 53 C-62.95977609 50.6670134 -62.95679753 48.33293334 -63 46 C-62.00419922 46.01740234 -62.00419922 46.01740234 -60.98828125 46.03515625 C-54.43693213 46.11893409 -54.43693213 46.11893409 -48 45 C-48 45.66 -48 46.32 -48 47 C-48.57234375 47.09152344 -49.1446875 47.18304688 -49.734375 47.27734375 C-52.55455705 48.17688458 -54.07584262 49.56952241 -56.25 51.5625 C-56.95640625 52.20316406 -57.6628125 52.84382813 -58.390625 53.50390625 C-58.92171875 53.99761719 -59.4528125 54.49132812 -60 55 C-56.01701551 55 -54.2564867 53.4697957 -50.875 51.375 C-43.00606592 46.65152709 -34.70947509 43.7836579 -26 41 C-26 40.67 -26 40.34 -26 40 C-27.30453125 39.95101562 -28.6090625 39.90203125 -29.953125 39.8515625 C-45.84222056 39.19243447 -45.84222056 39.19243447 -52.375 37.9375 C-66.93560373 35.39645281 -76.2348539 38.19598522 -89.75390625 43.59765625 Z M2 38 C3.82574569 43.70785759 5.98014735 49.28170934 8.125 54.875 C8.49753906 55.84953125 8.87007812 56.8240625 9.25390625 57.828125 C10.16813582 60.21918696 11.08353197 62.60979532 12 65 C10.84951172 64.690625 10.84951172 64.690625 9.67578125 64.375 C6.79737396 63.6591981 6.79737396 63.6591981 4.1875 66 C1.43188311 69.77913173 1.37624657 71.39981849 2 76 C3.61435927 83.11460988 7.84115408 89.19341686 13.91015625 93.2890625 C16.59025915 94.20079844 18.31065915 93.74703912 21 93 C21.92431276 73.22997708 16.24249146 53.18041704 3 38 C2.67 38 2.34 38 2 38 Z M-165.375 57.1875 C-167.13131396 60.22727416 -167.14898895 61.59044529 -167 65 C-165.18757948 65.02687279 -163.37504767 65.04633715 -161.5625 65.0625 C-160.04849609 65.07990234 -160.04849609 65.07990234 -158.50390625 65.09765625 C-156.05978933 65.28612676 -156.05978933 65.28612676 -155 64 C-154.73706944 59.96839809 -154.70595156 58.44107266 -157 55 C-160.95951278 54.31138908 -162.38088095 54.42975877 -165.375 57.1875 Z M-61.42578125 61.7421875 C-62.37839844 62.11601563 -63.33101562 62.48984375 -64.3125 62.875 C-74.4329527 66.82377145 -84.35123853 66.63827099 -95 65 C-90.82176752 69.17823248 -83.35202597 69.69577322 -77.6328125 70.21484375 C-70.15335999 69.89026374 -63.42710329 65.50153707 -57 62 C-59.02178989 60.70188489 -59.02178989 60.70188489 -61.42578125 61.7421875 Z M25 68 C26 71 26 71 26 71 Z M-64.75 69.9375 C-71.25271549 72.06338776 -77.67369861 72.13335368 -84.4375 72.0625 C-85.26443359 72.05798828 -86.09136719 72.05347656 -86.94335938 72.04882812 C-88.96227146 72.03715811 -90.98114574 72.01922718 -93 72 C-87.01652253 75.98898498 -78.04161197 75.35419067 -71 75 C-66.22670132 73.93257656 -62.47364667 72.47364667 -59 69 C-62.01097988 68.83866304 -62.01097988 68.83866304 -64.75 69.9375 Z M26 71 C26.06900513 71.8818396 26.06900513 71.8818396 26.1394043 72.78149414 C27.60900495 92.69002081 26.89838106 111.79924807 13.22265625 127.75 C0.61925169 140.50845523 -17.05400805 144.87279998 -34.5 145.375 C-40.56272541 145.24453629 -46.42678901 144.19675147 -52.35351562 142.97998047 C-56.70040182 142.09685095 -56.70040182 142.09685095 -61 143 C-43.64795048 153.01266723 -25.77553003 158.90320257 -5.5703125 154.08203125 C7.99622278 150.18146571 18.6532335 142.05256762 25.6484375 129.8203125 C34.7030653 110.92597357 33.67893392 90.36890837 27 71 C26.67 71 26.34 71 26 71 Z M-129 132 C-126.39229792 133.3494377 -123.80377354 134.49216245 -121.04296875 135.48828125 C-102.46298884 142.40916842 -85.92513264 152.59911418 -69.01147461 162.81567383 C-53.50562379 172.14982397 -38.23897463 181.25284662 -19.6875 181.0625 C-18.85154297 181.05798828 -18.01558594 181.05347656 -17.15429688 181.04882812 C-15.10283351 181.03710548 -13.05140727 181.01917203 -11 181 C-18.63908476 197.16461622 -30.39521635 209.70560489 -46.0625 218.4375 C-47.30205444 219.14616211 -47.30205444 219.14616211 -48.56665039 219.86914062 C-52.38413231 222.03690268 -56.21937687 224.13886738 -60.1484375 226.09765625 C-74.09339464 233.05776914 -83.94758473 241.91449115 -91 256 C-91.71169102 258.23505584 -91.71169102 258.23505584 -92 260 C-91.5153125 259.61328125 -91.030625 259.2265625 -90.53125 258.828125 C-89.52578125 258.04695313 -89.52578125 258.04695313 -88.5 257.25 C-87.8503125 256.73953125 -87.200625 256.2290625 -86.53125 255.703125 C-79.34903466 250.87064678 -72.29834191 248.96614153 -63.875 247.1875 C-44.10839604 242.67568238 -27.2921894 233.38402842 -16 216 C-10.42318245 206.36883609 -6.83468329 197.2385499 -6.375 186.0625 C-6.33632812 185.28326172 -6.29765625 184.50402344 -6.2578125 183.70117188 C-6.16455873 181.80112621 -6.08124038 179.90059722 -6 178 C-5.16597656 178.2165625 -4.33195312 178.433125 -3.47265625 178.65625 C9.45760651 181.85549027 19.43662578 181.89590857 31.41796875 175.6015625 C43.70510204 167.98019389 51.46209513 156.5377664 56 143 C56.54385298 140.61107543 56.83298798 138.44950956 57 136 C54.96463027 138.65612765 53.10707125 141.36452116 51.3125 144.1875 C45.18453752 153.33438518 38.6627161 159.64425432 29 165 C28.30519531 165.40089844 27.61039063 165.80179688 26.89453125 166.21484375 C19.52913378 169.99014419 11.09128055 170.7737669 3 172 C3.75925781 171.25621094 4.51851562 170.51242188 5.30078125 169.74609375 C10.19626134 164.76559809 14.27566936 159.89732256 16 153 C13.9600281 154.36323743 13.9600281 154.36323743 12 156 C12 156.66 12 157.32 12 158 C11.41734375 158.27972656 10.8346875 158.55945313 10.234375 158.84765625 C8.13232178 159.93175713 6.21925016 161.13144772 4.25 162.4375 C-6.67709025 169.34847686 -19.37634443 170.79619846 -31.96484375 168.31640625 C-44.5876599 165.17698551 -54.76251991 159.24976138 -65.50463867 152.18286133 C-84.63161452 139.67241652 -105.7196556 130.64239892 -129 132 Z M57 133 C58 136 58 136 58 136 Z M16 151 C17 153 17 153 17 153 Z " fill="#00B1EB" transform="translate(211,23)"/>
<path d="M0 0 C10.13366413 7.7399203 24.58758375 19.79232382 26.72753906 33.33422852 C23.07288089 31.68656488 20.02616358 29.43631902 16.79003906 27.08422852 C-2.08565405 13.77186939 -23.77364683 9.879534 -46.39746094 13.58422852 C-53.9053264 14.88306434 -61.07074676 16.82762482 -68.27246094 19.33422852 C-66.45488281 19.37290039 -66.45488281 19.37290039 -64.60058594 19.41235352 C-34.43459931 20.31827552 -7.11119225 28.59674614 14.30126953 50.7668457 C27.93116657 65.7452673 38.30048395 84.66237688 37.72753906 105.33422852 C37.06753906 105.33422852 36.40753906 105.33422852 35.72753906 105.33422852 C35.24285156 104.29524414 34.75816406 103.25625977 34.25878906 102.18579102 C30.22012379 93.71161506 25.99945162 86.39811374 19.72753906 79.33422852 C19.18742188 78.65231445 18.64730469 77.97040039 18.09082031 77.26782227 C7.94712357 64.71714663 -8.19333418 55.61539734 -23.27246094 50.33422852 C-23.60246094 50.66422852 -23.93246094 50.99422852 -24.27246094 51.33422852 C-23.57121094 51.89110352 -22.86996094 52.44797852 -22.14746094 53.02172852 C7.39351549 76.78294869 26.69993654 110.90843273 33.41503906 148.14672852 C34.51345688 158.97072079 33.98276022 169.70247161 31.72753906 180.33422852 C30.73753906 180.66422852 29.74753906 180.99422852 28.72753906 181.33422852 C28.71335937 180.65360352 28.69917969 179.97297852 28.68457031 179.27172852 C27.73654297 160.00371332 18.71301698 140.92523347 7.72753906 125.33422852 C7.25074707 124.65134766 6.77395508 123.9684668 6.28271484 123.26489258 C-1.35409089 112.39082063 -9.46418005 102.33045955 -18.78027344 92.8527832 C-20.08192911 91.52812707 -21.36624412 90.18647577 -22.64746094 88.84204102 C-25.74901216 85.63145088 -28.90472002 82.772323 -32.49902344 80.11938477 C-33.20881348 79.59352783 -33.91860352 79.0676709 -34.64990234 78.52587891 C-35.18534668 78.13263428 -35.72079102 77.73938965 -36.27246094 77.33422852 C-35.510625 78.31520508 -34.74878906 79.29618164 -33.96386719 80.30688477 C-11.89666571 109.02044453 3.46751256 141.78470804 -0.74121094 178.83422852 C-4.26901626 205.21227007 -18.48200381 230.39613634 -39.58496094 246.77172852 C-42.9904766 249.33422852 -42.9904766 249.33422852 -45.27246094 249.33422852 C-44.27246094 246.33422852 -44.27246094 246.33422852 -41.95996094 244.04125977 C-27.73442007 229.71233561 -23.51938121 205.58437262 -23.08496094 186.20922852 C-23.38429851 164.92632722 -29.43010672 142.548448 -42.27246094 125.33422852 C-41.95792969 126.01485352 -41.64339844 126.69547852 -41.31933594 127.39672852 C-28.29001574 156.90892366 -29.87741302 188.46518891 -41.16699219 218.25219727 C-48.92952488 237.592872 -60.17514461 254.93404316 -73.86230469 270.56469727 C-75.40720478 272.33995524 -76.91425176 274.14931481 -78.37011719 275.99829102 C-81.28658573 279.57949879 -84.75251275 282.36284368 -88.27246094 285.33422852 C-89.71105469 286.58719727 -89.71105469 286.58719727 -91.17871094 287.86547852 C-96.56022875 292.51058711 -101.66396072 296.53832458 -108.27246094 299.33422852 C-106.92642612 295.29612407 -104.61909371 293.86127775 -101.27246094 291.33422852 C-100.61246094 291.33422852 -99.95246094 291.33422852 -99.27246094 291.33422852 C-99.02367187 290.76961914 -98.77488281 290.20500977 -98.51855469 289.62329102 C-97.07545653 286.97233328 -95.32680422 284.97841706 -93.33496094 282.70922852 C-83.31506061 270.61124596 -75.8787369 256.52673 -69.27246094 242.33422852 C-68.74007812 241.19856445 -68.20769531 240.06290039 -67.65917969 238.89282227 C-56.99601128 215.11423225 -52.05172689 189.84197819 -52.14746094 163.83422852 C-52.14359375 162.78364258 -52.13972656 161.73305664 -52.13574219 160.65063477 C-52.1441779 153.82613999 -52.53309487 147.11820693 -53.27246094 140.33422852 C-53.41941406 141.6065332 -53.56636719 142.87883789 -53.71777344 144.18969727 C-56.90165119 169.88021205 -65.26201954 193.57579732 -77.28125 216.44165039 C-78.2705158 218.33051454 -79.23763783 220.22949987 -80.20214844 222.13110352 C-93.00604276 247.09337189 -112.84063347 278.63263823 -139.27246094 290.33422852 C-139.93246094 290.33422852 -140.59246094 290.33422852 -141.27246094 290.33422852 C-140.12553541 286.89345195 -138.62686276 285.9934649 -135.87695312 283.79370117 C-133.10713037 281.27422454 -131.31092454 278.21226345 -129.39746094 275.02172852 C-128.96965332 274.32023682 -128.5418457 273.61874512 -128.10107422 272.89599609 C-117.45658638 255.16771837 -109.4799707 236.02369948 -103.27246094 216.33422852 C-103.67972412 217.02347412 -104.0869873 217.71271973 -104.5065918 218.42285156 C-119.60740426 243.92744003 -119.60740426 243.92744003 -127.27246094 254.33422852 C-127.98402344 255.30618164 -128.69558594 256.27813477 -129.42871094 257.27954102 C-131.68286918 260.31947977 -133.96850194 263.33187008 -136.27246094 266.33422852 C-136.69253418 266.88191895 -137.11260742 267.42960937 -137.54541016 267.99389648 C-143.61419214 275.88083784 -149.92898582 283.50981243 -156.43652344 291.03735352 C-161.59327574 297.01050548 -166.5574029 303.13936897 -171.42480469 309.34985352 C-172.24078125 310.38541382 -172.24078125 310.38541382 -173.07324219 311.44189453 C-174.15028254 312.81052621 -175.2220585 314.18331991 -176.28808594 315.56054688 C-177.57075819 317.18863531 -178.91646276 318.76668617 -180.27246094 320.33422852 C-180.93246094 320.33422852 -181.59246094 320.33422852 -182.27246094 320.33422852 C-175.76886766 281.25072987 -148.00913371 250.40921088 -121.72167969 222.57250977 C-93.57902994 192.72172551 -73.94517524 158.87493269 -66.27246094 118.33422852 C-66.04558594 117.18567383 -65.81871094 116.03711914 -65.58496094 114.85375977 C-61.34290988 89.25415999 -64.00731328 62.79859262 -72.27246094 38.33422852 C-72.48741211 37.68035156 -72.70236328 37.02647461 -72.92382812 36.3527832 C-79.48491659 16.63028857 -89.7838284 -2.04648354 -104.09277344 -17.21264648 C-105.27246094 -18.66577148 -105.27246094 -18.66577148 -105.27246094 -20.66577148 C-71.04712363 -28.29677036 -28.60503586 -20.89145568 0 0 Z M-46.27246094 118.33422852 C-45.27246094 120.33422852 -45.27246094 120.33422852 -45.27246094 120.33422852 Z M-102.27246094 212.33422852 C-101.27246094 214.33422852 -101.27246094 214.33422852 -101.27246094 214.33422852 Z " fill="#00B1EB" transform="translate(368.2724609375,96.665771484375)"/>
<path d="M0 0 C2.28525709 -0.00221463 4.57005009 -0.0205777 6.85522461 -0.03930664 C35.52705881 -0.15097714 35.52705881 -0.15097714 45.79467773 8.78686523 C51.96888501 15.39885248 53.50234219 22.84854846 53.39233398 31.62280273 C53.38548584 32.45956543 53.3786377 33.29632813 53.37158203 34.15844727 C53.16968646 41.90004609 51.57664772 46.99661035 46.64233398 52.99780273 C43.55034489 55.51453804 40.47551188 57.32141443 36.95483398 59.18530273 C37.65608398 59.80405273 38.35733398 60.42280273 39.07983398 61.06030273 C47.1406041 69.24476035 50.96986018 80.82392761 55.26733398 91.24780273 C56.21305178 93.52517198 57.16095152 95.80160127 58.1113739 98.07701111 C58.6977028 99.48240961 59.28099398 100.88908014 59.86091614 102.2971344 C61.02692099 105.47549779 61.02692099 105.47549779 62.95483398 108.18530273 C69.02704966 92.15814587 74.92560223 76.0745104 80.68432617 59.93212891 C81.95069364 56.38440191 83.22213808 52.83852213 84.49389648 49.29272461 C90.2055447 33.32513318 95.63873493 17.28901006 100.95483398 1.18530273 C112.83483398 1.18530273 124.71483398 1.18530273 136.95483398 1.18530273 C137.97319336 4.07022461 138.99155273 6.95514648 140.04077148 9.92749023 C147.5073166 31.06376169 155.00541567 52.18848408 162.58917236 73.28302002 C163.36967951 75.45415047 164.14959443 77.62549393 164.92889404 79.79705811 C166.02545243 82.85165115 167.12450835 85.90533355 168.22436523 88.95874023 C168.54352402 89.84855591 168.8626828 90.73837158 169.19151306 91.65515137 C171.07709742 96.87811663 173.08056158 102.03366383 175.21098328 107.16201782 C175.95483398 109.18530273 175.95483398 109.18530273 175.95483398 111.18530273 C165.39483398 111.18530273 154.83483398 111.18530273 143.95483398 111.18530273 C143.15045898 108.17405273 142.34608398 105.16280273 141.51733398 102.06030273 C141.26540283 101.12299316 141.01347168 100.18568359 140.75390625 99.2199707 C140.45311157 98.08519287 140.45311157 98.08519287 140.14624023 96.92749023 C139.94200439 96.16291504 139.73776855 95.39833984 139.52734375 94.6105957 C138.87098248 91.83008701 138.42451009 89.00335935 137.95483398 86.18530273 C125.74483398 86.18530273 113.53483398 86.18530273 100.95483398 86.18530273 C98.98043687 94.06188155 98.98043687 94.06188155 97.04077148 101.94702148 C96.80616211 102.9125293 96.57155273 103.87803711 96.32983398 104.87280273 C96.09006836 105.86666992 95.85030273 106.86053711 95.60327148 107.88452148 C94.95483398 110.18530273 94.95483398 110.18530273 93.95483398 111.18530273 C91.99114245 111.27930943 90.02404199 111.30273655 88.05810547 111.29882812 C86.79687363 111.29875259 85.53564178 111.29867706 84.2361908 111.29859924 C82.84943605 111.29349183 81.4626817 111.28827583 80.07592773 111.28295898 C78.6648819 111.28109475 77.25383541 111.27967087 75.8427887 111.27867126 C72.12242863 111.27484653 68.40210738 111.26501663 64.6817627 111.25396729 C60.88802618 111.24375221 57.09428341 111.23917344 53.30053711 111.23413086 C45.85195167 111.22339431 38.40339826 111.20631843 30.95483398 111.18530273 C30.70838135 110.41452393 30.46192871 109.64374512 30.20800781 108.84960938 C29.07088333 105.31244898 27.91923496 101.78017735 26.76733398 98.24780273 C26.3799707 97.03543945 25.99260742 95.82307617 25.59350586 94.57397461 C21.73091095 81.74171975 21.73091095 81.74171975 12.95483398 72.18530273 C6.59873455 70.06660292 -0.35681049 70.57873541 -7.04516602 70.18530273 C-6.55016602 90.48030273 -6.55016602 90.48030273 -6.04516602 111.18530273 C-15.61516602 111.18530273 -25.18516602 111.18530273 -35.04516602 111.18530273 C-35.04516602 74.88530273 -35.04516602 38.58530273 -35.04516602 1.18530273 C-23.31566952 0.56796081 -11.72704183 -0.00126574 0 0 Z M-7.04516602 24.18530273 C-7.04516602 31.77530273 -7.04516602 39.36530273 -7.04516602 47.18530273 C-2.37360352 47.27811523 -2.37360352 47.27811523 2.39233398 47.37280273 C3.35453857 47.40011475 4.31674316 47.42742676 5.30810547 47.45556641 C11.26985366 47.51213641 16.52614412 46.7721825 21.95483398 44.18530273 C24.80458654 41.24919405 25.16883012 38.6426359 25.39233398 34.68530273 C25.25643441 30.39373727 24.14018018 28.18327562 20.95483398 25.18530273 C18.24082104 23.82829626 16.10637082 24.07291663 13.07202148 24.08764648 C11.32211914 24.09248047 11.32211914 24.09248047 9.53686523 24.09741211 C8.31354492 24.10579102 7.09022461 24.11416992 5.82983398 24.12280273 C4.5987793 24.12731445 3.36772461 24.13182617 2.09936523 24.13647461 C-0.94883241 24.14828933 -3.99700518 24.16622523 -7.04516602 24.18530273 Z M118.95483398 27.18530273 C116.20723371 34.20598481 113.97404087 41.35358911 111.76733398 48.56030273 C111.39930664 49.7475293 111.0312793 50.93475586 110.65209961 52.15795898 C110.30469727 53.2884668 109.95729492 54.41897461 109.59936523 55.58374023 C109.28330322 56.61160645 108.96724121 57.63947266 108.64160156 58.69848633 C107.86610103 61.07662475 107.86610103 61.07662475 107.95483398 63.18530273 C115.54483398 63.18530273 123.13483398 63.18530273 130.95483398 63.18530273 C127.36397718 51.16010785 123.73237171 39.15307712 119.95483398 27.18530273 C119.62483398 27.18530273 119.29483398 27.18530273 118.95483398 27.18530273 Z " fill="#FFFFFF" transform="translate(563.045166015625,117.814697265625)"/>
<path d="M0 0 C2.97 0 5.94 0 9 0 C9.495 3.465 9.495 3.465 10 7 C10.72703125 7.08636719 11.4540625 7.17273438 12.203125 7.26171875 C22.31863849 8.67529692 32.82769851 11.31539126 40 19 C44.10370255 24.72932385 46.71715021 30.07261111 48 37 C38.37343133 39.47257757 28.86404233 40.92369243 19 42 C18.12109375 39.02148438 18.12109375 39.02148438 17.2421875 36.04296875 C15.77557047 33.22290751 15.77557047 33.22290751 10 31 C9.67 37.6 9.34 44.2 9 51 C10.876875 51.226875 12.75375 51.45375 14.6875 51.6875 C24.79678514 53.26225792 35.74854099 56.35300686 43 64 C50.09934409 73.96399171 50.96785949 83.05856043 50 95 C48.1610992 103.87325024 42.57899165 110.82337412 35.125 115.8125 C26.70379826 120.59471208 18.59746495 121.56981996 9 122 C9 125.3 9 128.6 9 132 C6.03 132 3.06 132 0 132 C0 128.7 0 125.4 0 122 C-1.5675 121.9175 -3.135 121.835 -4.75 121.75 C-16.33478669 120.64810512 -26.22881551 116.90059909 -33.81640625 107.828125 C-37.22926314 103.0583491 -39.12979009 98.80139942 -40 93 C-39.71514244 91.32436727 -39.39072254 89.6541538 -39 88 C-35.43884042 87.32603699 -31.87587859 86.66212182 -28.3125 86 C-27.30509766 85.80921875 -26.29769531 85.6184375 -25.25976562 85.421875 C-24.28330078 85.24140625 -23.30683594 85.0609375 -22.30078125 84.875 C-21.40528564 84.70742187 -20.50979004 84.53984375 -19.5871582 84.3671875 C-17.01987068 84.00282018 -14.58907987 83.93471193 -12 84 C-11.84144531 84.60328125 -11.68289063 85.2065625 -11.51953125 85.828125 C-10.00807477 91.00548973 -8.82894656 94.10263207 -4 97 C-3.01 97.33 -2.02 97.66 -1 98 C-0.67 90.41 -0.34 82.82 0 75 C-3.09375 74.443125 -3.09375 74.443125 -6.25 73.875 C-16.01442729 71.78756924 -26.69500801 67.94317478 -32.765625 59.5625 C-33.25546875 58.716875 -33.7453125 57.87125 -34.25 57 C-34.75015625 56.154375 -35.2503125 55.30875 -35.765625 54.4375 C-39.32519524 47.40847523 -39.16685065 37.86422079 -37.3515625 30.296875 C-33.47590605 20.82304812 -26.1174493 14.08164925 -16.84375 10.06640625 C-11.3160955 8.03246296 -5.85753658 7.35463165 0 7 C0 4.69 0 2.38 0 0 Z M-8 33 C-10.44063627 36.6609544 -10.84106874 39.7431623 -10 44 C-6.72646319 47.6476553 -4.93470087 48.01305983 0 49 C0 42.73 0 36.46 0 30 C-3.14453463 30 -5.29921644 31.48080925 -8 33 Z M9 76 C9 83.59 9 91.18 9 99 C16.1740732 97.88458293 16.1740732 97.88458293 21.3125 93.25 C22.65895665 88.84341459 22.71234247 85.36274212 20.5625 81.25 C17.35105571 78.13649176 17.35105571 78.13649176 9 76 Z " fill="#FFFFFF" transform="translate(466,110)"/>
<path d="M0 0 C9.57 0 19.14 0 29 0 C29 12.87 29 25.74 29 39 C37.30152613 30.78253103 37.30152613 30.78253103 45.05078125 22.23046875 C46.64391208 20.40746733 48.26417049 18.63051883 49.91796875 16.86328125 C50.70892944 16.01709229 50.70892944 16.01709229 51.51586914 15.15380859 C52.55734022 14.04296932 53.60190577 12.9350198 54.65014648 11.83056641 C55.38406616 11.04625244 55.38406616 11.04625244 56.1328125 10.24609375 C56.56480957 9.78904053 56.99680664 9.3319873 57.44189453 8.86108398 C59.01368822 7.09588538 59.01368822 7.09588538 59.99021912 5.26234436 C62.93634505 0.34831223 62.93634505 0.34831223 65.87200928 -0.61302185 C68.13968079 -0.80992232 70.30824944 -0.78843996 72.58203125 -0.68359375 C73.80329964 -0.6687368 73.80329964 -0.6687368 75.04924011 -0.65357971 C77.63885982 -0.6145246 80.2241718 -0.52673611 82.8125 -0.4375 C84.5722042 -0.4023739 86.33197516 -0.37043714 88.09179688 -0.34179688 C92.39618018 -0.26479376 96.697361 -0.14408631 101 0 C95.99100226 6.00923442 90.59058141 11.4765562 85.00976562 16.95117188 C81.05251966 20.86288865 77.31151618 24.87620071 73.6809082 29.09204102 C71.09957947 32.02204596 68.34519761 34.76269144 65.5625 37.5 C65.02173828 38.03625 64.48097656 38.5725 63.92382812 39.125 C62.61823383 40.41904036 61.30947004 41.70988174 60 43 C64.77529805 50.56811829 69.65286061 58.05987031 74.625 65.5 C75.31795166 66.53737305 76.01090332 67.57474609 76.72485352 68.64355469 C89.67790493 88.09861117 89.67790493 88.09861117 103.48828125 106.9453125 C105 109 105 109 105 110 C93.12 110 81.24 110 69 110 C67.63875 107.48375 66.2775 104.9675 64.875 102.375 C60.20486725 93.86549461 55.09322938 85.67608054 49.82373047 77.52685547 C46.73743614 72.75346857 43.76022179 67.96975893 41 63 C35.83161525 65.43012916 31.91136946 67.95769812 29 73 C27.66599132 79.19994931 28.2484352 85.70969333 28.5 92 C28.54017545 93.74601218 28.5766691 95.49211318 28.609375 97.23828125 C28.6902468 101.49618177 28.8466995 105.74165284 29 110 C19.43 110 9.86 110 0 110 C0 73.7 0 37.4 0 0 Z " fill="#FFFFFF" transform="translate(854,119)"/>
<path d="M0 0 C27.06 0 54.12 0 82 0 C82 8.25 82 16.5 82 25 C64.18 24.67 46.36 24.34 28 24 C28 30.27 28 36.54 28 43 C43.84 42.67 59.68 42.34 76 42 C76 50.25 76 58.5 76 67 C59.97727096 67.13026609 44.01012177 66.6170453 28 66 C28 73.26 28 80.52 28 88 C55.225 87.505 55.225 87.505 83 87 C83 95.25 83 103.5 83 112 C55.61 112 28.22 112 0 112 C0 75.04 0 38.08 0 0 Z " fill="#FFFFFF" transform="translate(1008,118)"/>
<path d="M0 0 C7.80403291 5.73153333 11.43389629 13.06534938 14.0625 22.25 C14.0625 22.91 14.0625 23.57 14.0625 24.25 C4.41649262 26.16433287 -5.13902364 26.80883637 -14.9375 27.25 C-15.21722656 26.70730469 -15.49695312 26.16460937 -15.78515625 25.60546875 C-17.95910207 21.72591913 -19.41065464 19.56220466 -23.3125 17.25 C-30.04236096 15.39348663 -34.2782441 16.02220252 -40.3359375 19.1796875 C-42.10377735 20.16991972 -42.10377735 20.16991972 -42.9375 22.25 C-43.30979612 25.67512432 -43.48846843 27.51996683 -41.375 30.3203125 C-38.32146883 32.73769134 -35.35180921 33.46187736 -31.625 34.25 C-30.18602357 34.58518988 -28.74722536 34.92114569 -27.30859375 35.2578125 C-26.5801123 35.42313477 -25.85163086 35.58845703 -25.10107422 35.75878906 C-10.58281861 39.05496716 3.18502432 42.55074199 12.37109375 55.02734375 C17.10414929 63.29790793 16.28819041 75.36088395 14.40234375 84.421875 C10.89077753 94.21169599 4.3873011 99.60763285 -4.77734375 104.0234375 C-19.12672512 109.59291309 -38.56952792 109.7113119 -53.09375 104.5703125 C-62.50008875 100.20308379 -68.83299238 94.53459268 -72.9296875 84.921875 C-74.54337066 80.40356216 -75.30909592 76.01203461 -75.9375 71.25 C-71.47936441 70.74822621 -67.02096025 70.24888013 -62.5625 69.75 C-61.29148437 69.60691406 -60.02046875 69.46382813 -58.7109375 69.31640625 C-57.49921875 69.18105469 -56.2875 69.04570312 -55.0390625 68.90625 C-53.35804443 68.71772461 -53.35804443 68.71772461 -51.64306641 68.52539062 C-48.9375 68.25 -48.9375 68.25 -46.9375 68.25 C-46.76734375 68.85328125 -46.5971875 69.4565625 -46.421875 70.078125 C-44.49984771 76.49406639 -44.49984771 76.49406639 -39.9375 81.25 C-34.3669443 83.90539442 -28.99799633 83.79126219 -22.9375 83.25 C-18.7257791 81.72506657 -17.41763792 80.97020689 -14.9375 77.25 C-14.19810725 71.75595169 -14.19810725 71.75595169 -16.6171875 67.1171875 C-19.22717411 65.01689524 -21.22260344 64.23043757 -24.4375 63.3125 C-26.14679688 62.8175 -26.14679688 62.8175 -27.890625 62.3125 C-30.88821166 61.50463977 -33.90025082 60.77482205 -36.921875 60.0625 C-37.79134766 59.85488037 -38.66082031 59.64726074 -39.55664062 59.43334961 C-41.26574685 59.03002211 -42.97793363 58.63945787 -44.69335938 58.26391602 C-54.93038592 55.8690809 -63.04507686 50.98070048 -69.2578125 42.43359375 C-73.74833222 34.4103225 -73.49323971 22.78457843 -71.0546875 14.109375 C-66.71159101 4.73288854 -59.47534556 -1.09633463 -49.9375 -4.75 C-34.01035717 -9.69470121 -14.37481283 -8.65325904 0 0 Z " fill="#FFFFFF" transform="translate(1172.9375,123.75)"/>
<path d="M0 0 C6.42341375 7.516403 9.96843859 14.19505984 11 24 C7.08470852 24.83988453 3.16756028 25.67076813 -0.75 26.5 C-1.86117187 26.73847656 -2.97234375 26.97695312 -4.1171875 27.22265625 C-5.18710937 27.44824219 -6.25703125 27.67382812 -7.359375 27.90625 C-8.34389648 28.11572266 -9.32841797 28.32519531 -10.34277344 28.54101562 C-13 29 -13 29 -17 29 C-17.21914063 28.33613281 -17.43828125 27.67226562 -17.6640625 26.98828125 C-19.82943487 20.95868746 -21.56221431 17.48018284 -27 14 C-33.58266028 10.99487248 -39.52344756 11.2485177 -46.1875 13.625 C-52.70434224 16.49919688 -55.54784453 20.6137389 -58.25 27.0625 C-62.6878406 38.57542254 -62.50369053 52.51305899 -58 64 C-54.66125642 69.99791989 -50.37616477 74.56372028 -43.71484375 76.75 C-36.7993961 78.46015707 -30.96227923 78.38983625 -24.765625 74.65234375 C-19.18772069 70.34677163 -17.31650582 65.81566035 -16 59 C-6.26571024 60.00662622 3.40558907 61.01349201 13 63 C10.30736809 75.74074612 6.23832649 86.64336024 -4.578125 94.51171875 C-18.51776172 103.07785035 -36.32575088 104.60335247 -52.22265625 101.28125 C-55.28620957 100.37569431 -58.10397736 99.34301956 -61 98 C-61.83273437 97.61457031 -62.66546875 97.22914063 -63.5234375 96.83203125 C-76.66587508 90.08616213 -83.00030146 79.56872387 -88.0546875 65.9453125 C-90.24943573 59.10713 -90.21787277 52.56572985 -90.25 45.4375 C-90.270625 44.32052734 -90.29125 43.20355469 -90.3125 42.05273438 C-90.38360935 26.71977984 -86.03376394 12.28794933 -75.24609375 1.03125 C-55.53434367 -16.79502833 -19.94325051 -18.86523697 0 0 Z " fill="#FFFFFF" transform="translate(833,129)"/>
<path d="M0 0 C9.9 0 19.8 0 30 0 C30 36.3 30 72.6 30 110 C20.1 110 10.2 110 0 110 C0 73.7 0 37.4 0 0 Z " fill="#FFFFFF" transform="translate(965,119)"/>
<path d="M0 0 C16 0 16 0 19.74414062 2.9375 C21.01452637 4.87890625 21.01452637 4.87890625 22.15625 7 C22.59972778 7.71027344 23.04320557 8.42054688 23.50012207 9.15234375 C24.89012053 11.40584673 26.19359046 13.6972419 27.5 16 C28.43348151 17.54489408 29.37224523 19.08660947 30.31640625 20.625 C32.61907785 24.38049955 34.79826952 28.1768401 37 32 C37.33 21.44 37.66 10.88 38 0 C43.28 0 48.56 0 54 0 C54 19.47 54 38.94 54 59 C37 59 37 59 33.03125 55.30078125 C31.6796875 52.88085938 31.6796875 52.88085938 30.5 50.3125 C26.12032747 42.00321332 21.46183216 34.88931313 16 27 C16 37.56 16 48.12 16 59 C10.72 59 5.44 59 0 59 C0 39.53 0 20.06 0 0 Z M38 33 C39 35 39 35 39 35 Z " fill="#00B1EB" transform="translate(1024,269)"/>
<path d="M0 0 C8.53874578 4.6574977 12.99014497 10.43940543 16.05078125 19.73828125 C17.94648802 30.21253988 16.72715276 40.47850314 11.375 49.70703125 C7.58813983 54.90081516 1.40455896 57.88598035 -4.5625 59.875 C-15.6663173 60.63604815 -23.35349644 59.9347331 -32.8125 53.75 C-40.50995622 45.70265941 -42.04972767 36.52547327 -41.83984375 25.77734375 C-41.28194865 17.92752391 -38.71355777 11.07679031 -33.27734375 5.30859375 C-24.58769332 -1.95587483 -10.64931679 -3.5778337 0 0 Z M-22.375 15.13671875 C-26.41366963 21.04858712 -27.09263879 27.67841971 -26.0703125 34.6171875 C-25.08828536 38.98343126 -23.41171223 41.89711925 -20.5 45.25 C-16.17624525 47.64186433 -12.39060145 47.73384497 -7.5625 46.875 C-2.97538588 44.37293775 -1.36625304 42.13172727 0.375 37.25 C2.11677108 30.30365105 1.93872549 23.77391819 -1.375 17.375 C-3.97558747 14.40290003 -5.96913538 12.19051775 -9.9296875 11.40625 C-14.8338915 11.34513842 -18.6903493 11.42066477 -22.375 15.13671875 Z " fill="#00B1EB" transform="translate(1123.5625,269.125)"/>
<path d="M0 0 C8.53874578 4.6574977 12.99014497 10.43940543 16.05078125 19.73828125 C17.94648802 30.21253988 16.72715276 40.47850314 11.375 49.70703125 C7.58813983 54.90081516 1.40455896 57.88598035 -4.5625 59.875 C-15.6663173 60.63604815 -23.35349644 59.9347331 -32.8125 53.75 C-40.50995622 45.70265941 -42.04972767 36.52547327 -41.83984375 25.77734375 C-41.28194865 17.92752391 -38.71355777 11.07679031 -33.27734375 5.30859375 C-24.58769332 -1.95587483 -10.64931679 -3.5778337 0 0 Z M-22.375 15.13671875 C-26.41366963 21.04858712 -27.09263879 27.67841971 -26.0703125 34.6171875 C-25.08828536 38.98343126 -23.41171223 41.89711925 -20.5 45.25 C-16.17624525 47.64186433 -12.39060145 47.73384497 -7.5625 46.875 C-2.97538588 44.37293775 -1.36625304 42.13172727 0.375 37.25 C2.11677108 30.30365105 1.93872549 23.77391819 -1.375 17.375 C-3.97558747 14.40290003 -5.96913538 12.19051775 -9.9296875 11.40625 C-14.8338915 11.34513842 -18.6903493 11.42066477 -22.375 15.13671875 Z " fill="#00B1EB" transform="translate(787.5625,269.125)"/>
<path d="M0 0 C8.9409375 -0.12375 8.9409375 -0.12375 18.0625 -0.25 C19.93043213 -0.28641602 21.79836426 -0.32283203 23.72290039 -0.36035156 C25.22280736 -0.37204674 26.72272714 -0.3822366 28.22265625 -0.390625 C28.98574097 -0.41108887 29.74882568 -0.43155273 30.53503418 -0.45263672 C36.15584063 -0.45625779 39.35411941 0.81378863 44 4 C48.21138546 8.63252401 48.34079146 13.24893953 48.28515625 19.2734375 C47.69872064 24.88072597 43.96288557 28.32017769 40 32 C40.61133789 32.55864746 41.22267578 33.11729492 41.85253906 33.69287109 C44.0553315 36.0594455 45.1132007 37.9531298 46.359375 40.9140625 C46.75253906 41.83960938 47.14570312 42.76515625 47.55078125 43.71875 C47.94652344 44.6778125 48.34226562 45.636875 48.75 46.625 C49.16121094 47.59179688 49.57242188 48.55859375 49.99609375 49.5546875 C53 56.70019207 53 56.70019207 53 59 C47.39 59 41.78 59 36 59 C35.55269531 57.73542969 35.10539063 56.47085938 34.64453125 55.16796875 C34.03474862 53.50748375 33.42402193 51.84734524 32.8125 50.1875 C32.52052734 49.35412109 32.22855469 48.52074219 31.92773438 47.66210938 C30.59381415 44.09064556 29.62742566 41.5639166 26.76171875 38.98828125 C23.21995116 37.60790502 23.21995116 37.60790502 16 37 C16 44.26 16 51.52 16 59 C10.72 59 5.44 59 0 59 C0 39.53 0 20.06 0 0 Z M16 12 C16 16.29 16 20.58 16 25 C18.84625 25.0928125 18.84625 25.0928125 21.75 25.1875 C22.81734375 25.22230469 23.8846875 25.25710938 24.984375 25.29296875 C28.33711152 24.96724953 29.62680155 24.33977312 32 22 C33.03839699 19.10732266 33.23529002 17.65157235 32.1875 14.75 C31.10600632 12.84925076 31.10600632 12.84925076 29 12 C24.66396021 11.8606671 20.33919329 11.95745889 16 12 Z " fill="#00B1EB" transform="translate(531,269)"/>
<path d="M0 0 C1.01610352 -0.02416992 1.01610352 -0.02416992 2.05273438 -0.04882812 C9.20183869 -0.05568249 14.90675046 2.29996572 20.0625 7.3125 C22.33549063 11.07469139 23.0625 12.86382735 23.0625 17.3125 C17.70154667 18.44112175 12.50943314 18.40938221 7.0625 18.3125 C6.77375 17.673125 6.485 17.03375 6.1875 16.375 C5.23426549 14.16043921 5.23426549 14.16043921 3.0625 13.3125 C-0.46768797 13.15901357 -3.55277952 13.27104754 -6.9375 14.3125 C-6.6075 16.2925 -6.2775 18.2725 -5.9375 20.3125 C-5.33800537 20.46283691 -4.73851074 20.61317383 -4.12084961 20.76806641 C-1.36663198 21.4710335 1.3787748 22.20395679 4.125 22.9375 C5.06794922 23.17339844 6.01089844 23.40929687 6.98242188 23.65234375 C13.79855559 25.50481215 19.56058092 27.98604647 23.22753906 34.32714844 C25.45061728 39.61313443 24.6757282 46.43874716 22.9375 51.75 C19.16446016 56.90648779 15.18928844 59.68157634 9.0625 61.3125 C-0.96107496 62.16430578 -11.27505853 62.53141248 -19.578125 56.02734375 C-23.34620293 52.14015991 -24.17029233 47.46538732 -24.9375 42.3125 C-21.9759304 40.8317152 -19.10243705 40.95935963 -15.8125 40.75 C-14.53117188 40.66621094 -13.24984375 40.58242188 -11.9296875 40.49609375 C-10.94226563 40.43550781 -9.95484375 40.37492187 -8.9375 40.3125 C-8.65132812 41.09882813 -8.36515625 41.88515625 -8.0703125 42.6953125 C-7.10628359 45.43149041 -7.10628359 45.43149041 -4.8125 47.1875 C-0.78661426 48.76284659 1.83964693 48.09981159 6.0625 47.3125 C6.7225 45.6625 7.3825 44.0125 8.0625 42.3125 C4.73361068 38.17294851 1.19465534 37.30474363 -3.8125 36.3125 C-11.71765273 34.72853619 -17.1073399 32.1105031 -21.9375 25.3125 C-23.78617207 21.61515586 -23.27395425 17.3561816 -22.9375 13.3125 C-21.17662588 8.12770398 -18.3793063 5.44789268 -13.9375 2.3125 C-9.28379734 0.3824239 -4.98238132 -0.0235685 0 0 Z " fill="#00B1EB" transform="translate(971.9375,267.6875)"/>
<path d="M0 0 C6.27 0 12.54 0 19 0 C21.67266596 6.59563962 24.21269468 13.21484893 26.6015625 19.91796875 C26.92410004 20.81945145 27.24663757 21.72093414 27.57894897 22.6497345 C28.25377058 24.53755597 28.92764002 26.42571807 29.60058594 28.31420898 C30.62649615 31.19169642 31.65681423 34.06757953 32.6875 36.94335938 C33.34661942 38.78896779 34.00548249 40.63466778 34.6640625 42.48046875 C35.12191635 43.75726753 35.12191635 43.75726753 35.58901978 45.05986023 C35.87626923 45.86792618 36.16351868 46.67599213 36.45947266 47.50854492 C36.70944 48.20896408 36.95940735 48.90938324 37.21694946 49.63102722 C38.23940846 52.72428547 39.1049963 55.86748705 40 59 C34.39 59 28.78 59 23 59 C20 49.375 20 49.375 20 46 C13.4 46 6.8 46 0 46 C-0.99 50.29 -1.98 54.58 -3 59 C-8.94 59 -14.88 59 -21 59 C-14.06857943 39.30819773 -7.10549861 19.62983706 0 0 Z M9 14 C8.16169027 16.76941606 7.32917966 19.54035069 6.5 22.3125 C6.26152344 23.09818359 6.02304687 23.88386719 5.77734375 24.69335938 C5.55175781 25.45068359 5.32617188 26.20800781 5.09375 26.98828125 C4.88427734 27.68477783 4.67480469 28.38127441 4.45898438 29.09887695 C3.88265736 31.16007833 3.88265736 31.16007833 4 34 C7.96 34 11.92 34 16 34 C14.02 27.4 12.04 20.8 10 14 C9.67 14 9.34 14 9 14 Z " fill="#00B1EB" transform="translate(906,269)"/>
<path d="M0 0 C5.93286517 4.35809232 9.54112574 9.15553522 10.8984375 16.39453125 C8.98331478 16.90041272 7.06626828 17.39901516 5.1484375 17.89453125 C4.08109375 18.17296875 3.01375 18.45140625 1.9140625 18.73828125 C-1.1015625 19.39453125 -1.1015625 19.39453125 -5.1015625 19.39453125 C-5.5346875 18.44578125 -5.9678125 17.49703125 -6.4140625 16.51953125 C-7.89458451 13.19411188 -7.89458451 13.19411188 -11.1015625 11.39453125 C-15.60438661 10.66935733 -19.09441904 10.79453089 -23.0390625 13.14453125 C-27.67647485 18.20352655 -28.16339094 23.70822667 -28.1015625 30.39453125 C-27.3407245 35.30913348 -26.12057559 39.13575037 -22.9765625 43.01953125 C-18.93949597 44.9503022 -15.49586277 45.18406977 -11.1015625 44.39453125 C-6.93705406 42.00215406 -5.72498702 39.78432938 -4.1015625 35.39453125 C-2.35123406 35.53636821 -0.60130716 35.68316554 1.1484375 35.83203125 C2.12296875 35.91324219 3.0975 35.99445313 4.1015625 36.078125 C6.46305503 36.34527709 8.61744815 36.74825093 10.8984375 37.39453125 C10.61950248 43.94950415 8.18431063 48.44855712 3.8984375 53.39453125 C-3.831977 59.47556852 -13.72325832 59.29800098 -23.1015625 58.39453125 C-29.7500069 56.71184381 -35.96507414 52.95534519 -39.54296875 46.9921875 C-44.46066823 37.45100987 -45.69366176 27.80916493 -43.41796875 17.2109375 C-40.93314488 9.77708683 -37.25653319 4.09912818 -30.4765625 0.01953125 C-21.80631739 -4.15503121 -8.63434682 -4.68107309 0 0 Z " fill="#00B1EB" transform="translate(873.1015625,270.60546875)"/>
<path d="M0 0 C5.93286517 4.35809232 9.54112574 9.15553522 10.8984375 16.39453125 C8.98331478 16.90041272 7.06626828 17.39901516 5.1484375 17.89453125 C4.08109375 18.17296875 3.01375 18.45140625 1.9140625 18.73828125 C-1.1015625 19.39453125 -1.1015625 19.39453125 -5.1015625 19.39453125 C-5.5346875 18.44578125 -5.9678125 17.49703125 -6.4140625 16.51953125 C-7.89458451 13.19411188 -7.89458451 13.19411188 -11.1015625 11.39453125 C-15.60438661 10.66935733 -19.09441904 10.79453089 -23.0390625 13.14453125 C-27.67647485 18.20352655 -28.16339094 23.70822667 -28.1015625 30.39453125 C-27.3407245 35.30913348 -26.12057559 39.13575037 -22.9765625 43.01953125 C-18.93949597 44.9503022 -15.49586277 45.18406977 -11.1015625 44.39453125 C-6.93705406 42.00215406 -5.72498702 39.78432938 -4.1015625 35.39453125 C-2.35123406 35.53636821 -0.60130716 35.68316554 1.1484375 35.83203125 C2.12296875 35.91324219 3.0975 35.99445313 4.1015625 36.078125 C6.46305503 36.34527709 8.61744815 36.74825093 10.8984375 37.39453125 C10.61950248 43.94950415 8.18431063 48.44855712 3.8984375 53.39453125 C-3.831977 59.47556852 -13.72325832 59.29800098 -23.1015625 58.39453125 C-29.7500069 56.71184381 -35.96507414 52.95534519 -39.54296875 46.9921875 C-44.46066823 37.45100987 -45.69366176 27.80916493 -43.41796875 17.2109375 C-40.93314488 9.77708683 -37.25653319 4.09912818 -30.4765625 0.01953125 C-21.80631739 -4.15503121 -8.63434682 -4.68107309 0 0 Z " fill="#00B1EB" transform="translate(515.1015625,270.60546875)"/>
<path d="M0 0 C5.61 -0.0825 11.22 -0.165 17 -0.25 C18.75441406 -0.28641602 20.50882813 -0.32283203 22.31640625 -0.36035156 C23.73175845 -0.3720513 25.14712428 -0.38224007 26.5625 -0.390625 C27.27728516 -0.41108887 27.99207031 -0.43155273 28.72851562 -0.45263672 C34.98334293 -0.4568975 40.14823607 1.49282421 44.875 5.6484375 C48.95614806 11.91186612 49.01251025 18.72680136 48 26 C45.6160375 31.74631423 42.4132707 35.17033549 36.88671875 38.1328125 C32.7944643 39.3621501 28.93120809 39.21141121 24.6875 39.125 C21.820625 39.08375 18.95375 39.0425 16 39 C16 45.6 16 52.2 16 59 C10.72 59 5.44 59 0 59 C0 39.53 0 20.06 0 0 Z M16 12 C16 16.95 16 21.9 16 27 C24.60094823 27.68337217 24.60094823 27.68337217 32 24 C33.39935013 21.20129973 33.25265405 19.09501208 33 16 C31.14657225 13.44050454 30.06243607 13.02081202 27 12 C25.10529184 11.9314505 23.2083166 11.91519628 21.3125 11.9375 C19.559375 11.958125 17.80625 11.97875 16 12 Z " fill="#00B1EB" transform="translate(642,269)"/>
<path d="M0 0 C6.27 0 12.54 0 19 0 C22.3 6.27 25.6 12.54 29 19 C30.98918912 16.34774784 32.54111639 14.18410654 34.04296875 11.328125 C34.51899536 10.4294873 34.51899536 10.4294873 35.00463867 9.51269531 C35.59015503 8.39266113 35.59015503 8.39266113 36.1875 7.25 C37.445625 4.8575 38.70375 2.465 40 0 C46.27 0 52.54 0 59 0 C57.700625 2.2584375 57.700625 2.2584375 56.375 4.5625 C55.75238281 5.66207031 55.12976563 6.76164062 54.48828125 7.89453125 C52.62330797 11.07962718 50.55847809 14.06814826 48.41796875 17.07421875 C38.57288488 31.33632677 36.09291361 41.79081571 38 59 C32.39 59 26.78 59 21 59 C21.17402344 57.55753906 21.34804688 56.11507812 21.52734375 54.62890625 C22.94232985 37.26529832 17.69904865 26.83384423 7.90136719 12.78222656 C5.06696273 8.63470818 2.54199127 4.33167983 0 0 Z " fill="#00B1EB" transform="translate(580,269)"/>
<path d="M0 0 C17.49 0 34.98 0 53 0 C53 4.62 53 9.24 53 14 C46.73 14 40.46 14 34 14 C34 29.18 34 44.36 34 60 C28.72 60 23.44 60 18 60 C18.33 44.82 18.66 29.64 19 14 C12.73 14 6.46 14 0 14 C0 9.38 0 4.76 0 0 Z " fill="#00B1EB" transform="translate(691,268)"/>
<path d="M0 0 C0 0.66 0 1.32 0 2 C-1.155 1.835 -2.31 1.67 -3.5 1.5 C-29.53939624 -1.25806689 -56.50361611 4.323694 -78.27734375 19.24609375 C-81 21 -81 21 -84 21 C-84 20.34 -84 19.68 -84 19 C-84.51304687 18.76410156 -85.02609375 18.52820313 -85.5546875 18.28515625 C-88.87637391 16.53941371 -91.98558559 14.48621064 -95.125 12.4375 C-99.46303009 9.54893564 -99.46303009 9.54893564 -104 7 C-104 6.34 -104 5.68 -104 5 C-71.69641402 -7.87802532 -33.03816866 -13.78923565 0 0 Z " fill="#00B1EB" transform="translate(339,50)"/>
<path d="M0 0 C5.28 0 10.56 0 16 0 C16 19.47 16 38.94 16 59 C10.72 59 5.44 59 0 59 C0 39.53 0 20.06 0 0 Z " fill="#00B1EB" transform="translate(1001,269)"/>
<path d="M0 0 C5.39392739 0.61665136 10.28395283 1.87922796 15.4375 3.5625 C16.16904297 3.79646484 16.90058594 4.03042969 17.65429688 4.27148438 C19.43780179 4.84267222 21.21913583 5.42063123 23 6 C22.9175 7.258125 22.835 8.51625 22.75 9.8125 C22.79057934 22.75731039 30.91233212 34.07387011 39.265625 43.28515625 C40.90142568 45.08023403 40.90142568 45.08023403 43 46 C42.67 46.99 42.34 47.98 42 49 C5.23432706 23.98872135 5.23432706 23.98872135 0.37109375 2.1796875 C0.24863281 1.46039063 0.12617187 0.74109375 0 0 Z " fill="#00B1EB" transform="translate(77,166)"/>
<path d="M0 0 C0.60328125 0.20496094 1.2065625 0.40992188 1.828125 0.62109375 C3.02695312 1.02521484 3.02695312 1.02521484 4.25 1.4375 C5.03890625 1.70433594 5.8278125 1.97117188 6.640625 2.24609375 C8.74821988 2.91954708 10.84753973 3.49150595 13 4 C12.84144531 4.86625 12.68289062 5.7325 12.51953125 6.625 C10.20035791 21.69090802 14.0413515 34.38230422 21.51171875 47.35546875 C23 50 23 50 24 53 C14.56342057 49.85447352 6.43323986 34.42053251 2 26 C-1.83487721 17.1708641 -2.84857032 9.21596281 0 0 Z " fill="#00B1EB" transform="translate(41,152)"/>
<path d="M0 0 C0 0.66 0 1.32 0 2 C-1.11117187 2.23074219 -2.22234375 2.46148437 -3.3671875 2.69921875 C-18.21677483 5.45864382 -18.21677483 5.45864382 -29.75 14.375 C-30.4925 15.24125 -31.235 16.1075 -32 17 C-34.6875 17.0625 -34.6875 17.0625 -38 16 C-39.7915913 15.47890748 -41.58326246 14.95808947 -43.375 14.4375 C-44.91777806 13.96192387 -46.45983306 13.4839655 -48 13 C-46.76925928 9.30777783 -45.22983872 8.77044298 -41.88525391 7.04272461 C-27.50068251 0.01819861 -15.82278939 -1.47395232 0 0 Z " fill="#00B1EB" transform="translate(265,38)"/>
<path d="M0 0 C2 2 2 2 2.3125 5 C2.1578125 6.485 2.1578125 6.485 2 8 C-1 10 -1 10 -4.125 9.6875 C-7 9 -7 9 -8 8 C-8.29573841 5.19048514 -8.38243085 3.58371024 -6.8125 1.1875 C-4.3864306 -0.40199375 -2.84602594 -0.36487512 0 0 Z " fill="#00B1EB" transform="translate(138,66)"/>
</svg>
