<?xml version="1.0" encoding="UTF-8"?>
<svg version="1.1" xmlns="http://www.w3.org/2000/svg" width="2000" height="1000">
<path d="M0 0 C0.77087408 -0.00235223 1.54174816 -0.00470446 2.33598205 -0.00712797 C4.92835646 -0.01380392 7.52068058 -0.01336017 10.11306286 -0.01294994 C11.98688479 -0.01624946 13.86070602 -0.01997521 15.73452634 -0.02409142 C20.89145849 -0.03410987 26.04837901 -0.03782798 31.20531952 -0.04048073 C36.7645585 -0.04438433 42.32378826 -0.05396274 47.88302135 -0.0626936 C61.31383492 -0.08245808 74.74464924 -0.09252493 88.17547372 -0.10142139 C94.50174892 -0.10580496 100.82802329 -0.11117165 107.15429783 -0.11641026 C128.18774554 -0.13342373 149.2211929 -0.14794187 170.2546463 -0.155159 C171.61477775 -0.15563375 172.97490919 -0.15610964 174.33504064 -0.15658666 C175.00952956 -0.15682303 175.68401849 -0.15705941 176.37894647 -0.15730295 C179.79611186 -0.15850412 183.21327724 -0.15971958 186.63044262 -0.16094494 C187.30858431 -0.16118509 187.986726 -0.16142524 188.68541744 -0.16167267 C210.65701671 -0.16956012 232.62856191 -0.19297987 254.60013758 -0.22550088 C277.84237239 -0.25983966 301.08457689 -0.27951286 324.32684106 -0.28280324 C336.99117422 -0.28496682 349.65542794 -0.29369311 362.31973743 -0.31926441 C373.10748527 -0.34099634 383.89513436 -0.34900958 394.6829016 -0.33929763 C400.18359452 -0.33475999 405.6840838 -0.33660809 411.18474865 -0.35605907 C416.22913828 -0.3737419 421.27317649 -0.37265152 426.31757011 -0.35716178 C428.13398294 -0.35479346 429.95042043 -0.3590686 431.76679567 -0.37099043 C446.12141778 -0.45930468 459.8968525 0.97666251 472.74543285 8.00922108 C473.41026684 8.35944324 474.07510082 8.70966541 474.76008129 9.07050037 C476.62445001 10.06718551 478.46924513 11.09107331 480.30793285 12.13422108 C481.16000317 12.61761951 482.01207348 13.10101795 482.8899641 13.59906483 C502.91552579 26.04738696 515.67150508 46.55666578 521.30793285 69.13422108 C526.62630106 92.09856144 521.67497705 115.09828253 510.30793285 135.13422108 C509.82453442 135.98629139 509.34113598 136.8383617 508.8430891 137.71625233 C495.85169405 158.61545307 474.5745135 170.94621581 451.11559135 176.66904515 C447.60536517 177.25062326 444.16240291 177.27581283 440.61586571 177.26844215 C439.45955459 177.2719705 439.45955459 177.2719705 438.27988365 177.27557012 C435.68750925 177.28224607 433.09518512 177.28180232 430.50280285 177.2813921 C428.62898091 177.28469161 426.75515969 177.28841737 424.88133937 177.29253358 C419.72440721 177.30255202 414.56748669 177.30627014 409.41054618 177.30892289 C403.85130721 177.31282648 398.29207745 177.3224049 392.73284435 177.33113575 C379.30203079 177.35090024 365.87121646 177.36096708 352.44039199 177.36986354 C346.11411679 177.37424711 339.78784242 177.3796138 333.46156788 177.38485241 C312.42812016 177.40186589 291.3946728 177.41638403 270.36121941 177.42360115 C269.00108796 177.4240759 267.64095651 177.42455179 266.28082507 177.42502881 C265.60633614 177.42526519 264.93184722 177.42550156 264.23691924 177.4257451 C260.81975385 177.42694627 257.40258847 177.42816173 253.98542309 177.42938709 C253.3072814 177.42962724 252.6291397 177.42986739 251.93044826 177.43011482 C229.95884899 177.43800228 207.9873038 177.46142202 186.01572813 177.49394304 C162.77349332 177.52828181 139.53128882 177.54795501 116.28902465 177.55124539 C103.62469148 177.55340897 90.96043777 177.56213527 78.29612827 177.58770657 C67.50838044 177.60943849 56.72073135 177.61745174 45.93296411 177.60773978 C40.43227119 177.60320214 34.93178191 177.60505024 29.43111706 177.62450123 C24.38672743 177.64218405 19.34268922 177.64109367 14.29829559 177.62560394 C12.48188277 177.62323561 10.66544528 177.62751076 8.84907003 177.63943259 C-5.50555207 177.72774684 -19.28098679 176.29177964 -32.12956715 169.25922108 C-33.12681812 168.73388783 -33.12681812 168.73388783 -34.14421558 168.19794178 C-36.0085843 167.20125665 -37.85337942 166.17736885 -39.69206715 165.13422108 C-40.54413746 164.65082264 -41.39620777 164.1674242 -42.2740984 163.66937733 C-62.29966008 151.2210552 -75.05563938 130.71177638 -80.69206715 108.13422108 C-86.01043536 85.16988071 -81.05911134 62.17015962 -69.69206715 42.13422108 C-69.20866871 41.28215076 -68.72527027 40.43008045 -68.2272234 39.55218983 C-55.23582834 18.65298908 -33.95864779 6.32222635 -10.49972564 0.599397 C-6.98949946 0.01781889 -3.5465372 -0.00737068 0 0 Z " fill="#00B1EB" transform="translate(1336.6920671463013,754.8657789230347)"/>
<path d="M0 0 C23.43 0 46.86 0 71 0 C74.44604363 19.52758057 74.44604363 19.52758057 75.72073364 28.10855103 C75.86959924 29.09818985 76.01846483 30.08782868 76.1718415 31.10745656 C76.65977134 34.35469559 77.14460098 37.60238905 77.62939453 40.85009766 C77.98270137 43.20577778 78.33620217 45.56142882 78.68988037 47.91705322 C79.64213161 54.26312622 80.59167731 60.6096013 81.54069757 66.95615816 C82.43552558 72.93893993 83.3327998 78.92135503 84.22983049 84.90380685 C86.00571358 96.74794748 87.7796037 108.59238568 89.55224609 120.43701172 C91.2698347 131.91374841 92.98849217 143.39032425 94.70849609 154.86669922 C94.81467436 155.57515404 94.92085263 156.28360885 95.03024842 157.013532 C95.45713127 159.86180361 95.88401998 162.71007435 96.31091685 165.55834386 C99.57945061 187.36626524 102.84704948 209.17432742 106.1113205 230.98288727 C106.45268552 233.26335446 106.79412828 235.54381002 107.13565445 237.82425308 C107.60174106 240.93656328 108.06752956 244.04891794 108.53323364 247.1612854 C108.73590605 248.5140479 108.73590605 248.5140479 108.94267285 249.89413893 C109.64550936 254.59378876 110.33409452 259.29497115 111 264 C113.3791249 251.75064113 115.42491299 239.46170963 117.38232422 227.13867188 C117.70944007 225.08970737 118.03674667 223.0407733 118.36422729 220.99186707 C119.24648827 215.468427 120.12606718 209.94456294 121.00511312 204.42061043 C121.93281158 198.59376381 122.86293269 192.76730389 123.79275513 186.9407959 C125.3559549 177.14321455 126.91755386 167.3453792 128.47802734 157.54736328 C130.4653214 145.0694256 132.4550451 132.59187672 134.44563103 120.11446381 C136.17339949 109.28444275 137.9002343 98.45427285 139.62682199 87.62406349 C139.99326544 85.32557044 140.3597364 83.02708177 140.72623587 80.72859764 C141.77225776 74.16845461 142.8178185 67.60823843 143.86257958 61.04789448 C144.19061401 58.98820507 144.51875164 56.9285321 144.84699798 54.86887646 C146.43595417 44.89664336 148.01800215 34.92353622 149.56109619 24.9440918 C149.67994254 24.17679733 149.79878888 23.40950286 149.92123663 22.61895704 C150.46210731 19.12518977 151.00032032 15.63105894 151.53294182 12.13602448 C151.80548129 10.36827793 151.80548129 10.36827793 152.08352661 8.56481934 C152.23798815 7.55277184 152.39244968 6.54072433 152.55159187 5.49800873 C153 3 153 3 154 0 C177.76 0 201.52 0 226 0 C227.69527832 10.61820923 227.69527832 10.61820923 229.42480469 21.45092773 C233.05605559 44.19487324 236.6873476 66.93881219 240.31866495 89.68274709 C240.88431862 93.22559111 241.44997192 96.76843519 242.015625 100.3112793 C242.12821912 101.01648785 242.24081324 101.72169641 242.3568193 102.44827492 C244.17123401 113.81246867 245.98561969 125.17666705 247.79999432 136.5408672 C249.66676329 148.23323116 251.5335642 159.92559001 253.40039372 171.6179443 C254.44682903 178.17199906 255.49324936 184.72605621 256.5396347 191.28011894 C257.52782513 197.46967321 258.51605551 203.65922109 259.50431442 209.84876442 C259.86386153 212.100679 260.22339497 214.35259576 260.58291245 216.60451508 C263.05201038 232.07019958 265.52470209 247.53530659 268 263 C269.44579479 256.85718848 270.5833965 250.72328865 271.50436401 244.4815979 C271.64209138 243.56599197 271.77981875 242.65038604 271.92171967 241.70703447 C272.37906143 238.66141701 272.83186513 235.61514297 273.28466797 232.56884766 C273.61317061 230.37486241 273.94195402 228.18091918 274.27099609 225.98701477 C275.16241232 220.03800316 276.04988893 214.0884098 276.93665075 208.13870287 C277.86940683 201.88496544 278.80576912 195.631768 279.74172974 189.37850952 C281.31573002 178.85909347 282.8874768 168.33934318 284.45751953 157.81933594 C286.06401728 147.05510271 287.67192681 136.29108193 289.28173828 125.52734375 C289.38050907 124.86692615 289.47927986 124.20650855 289.58104371 123.5260783 C289.97837207 120.86943627 290.375711 118.21279582 290.77306383 115.55615745 C293.83986815 95.05191709 296.90511553 74.54744391 299.96650696 54.04239464 C300.28406489 51.91546966 300.60166981 49.7885517 300.9193306 47.66164207 C303.29174184 31.77621378 305.64619062 15.88821334 308 0 C331.76 0 355.52 0 380 0 C377.74999543 15.75003196 377.74999543 15.75003196 376.75325012 21.22125244 C376.52611611 22.47533748 376.29898211 23.72942251 376.06496525 25.02151012 C375.8191564 26.36363286 375.57329708 27.70574635 375.32739258 29.04785156 C375.06128245 30.51141743 374.79540544 31.9750257 374.52973843 33.43867207 C373.80674133 37.41811472 373.0804729 41.39695405 372.35361767 45.37569356 C371.5682703 49.6779223 370.78601113 53.98071268 370.00335693 58.28343201 C368.47471791 66.68456096 366.94327171 75.08517581 365.41087902 83.4856208 C363.62771468 93.26145484 361.84749659 103.0378247 360.06740367 112.8142184 C356.71445641 131.22824268 353.35850717 149.64171876 350.00108039 168.05492675 C347.15522024 183.66255702 344.31047613 199.2703902 341.46679688 214.87841797 C337.33792549 237.54022836 333.20819723 260.20188242 329.07730818 282.86332512 C328.56084747 285.6965656 328.04440255 288.52980896 327.52795792 291.36305237 C325.56998762 302.10436618 323.6114743 312.84558076 321.65219879 323.58665657 C321.05881646 326.83974933 320.46562662 330.0928771 319.872612 333.34603691 C319.19113927 337.08440244 318.50926296 340.82269412 317.82705724 344.56092596 C317.46310279 346.55581604 317.0995622 348.55078162 316.73603535 350.54574966 C316.52013846 351.72828701 316.30424158 352.91082436 316.08180237 354.12919617 C315.8956817 355.14963359 315.70956102 356.17007101 315.51780033 357.22143078 C315.03371454 359.81908432 314.52494272 362.41032652 314 365 C303.19541915 365.02312312 292.39084414 365.04091493 281.58624363 365.05181217 C276.5697753 365.05704107 271.55332385 365.06413883 266.53686523 365.07543945 C261.69990306 365.0862681 256.86295716 365.09227679 252.02598381 365.09487724 C250.17631715 365.09673153 248.32665143 365.10035222 246.47699165 365.10573006 C243.89552986 365.1129402 241.31413618 365.11399095 238.73266602 365.11352539 C237.96014999 365.11712067 237.18763397 365.12071594 236.39170837 365.12442017 C231.11405216 365.11405216 231.11405216 365.11405216 230 364 C229.705583 362.6195505 229.46713861 361.22709735 229.25225735 359.83205318 C229.11093048 358.92786268 228.9696036 358.02367218 228.8239941 357.09208196 C228.59490646 355.58481781 228.59490646 355.58481781 228.3611908 354.04710388 C228.19699428 352.9886094 228.03279776 351.93011491 227.86362559 350.83954483 C227.31001428 347.26398737 226.76234296 343.68754472 226.21459961 340.11108398 C225.82072302 337.55919004 225.42648349 335.00735209 225.03190613 332.45556641 C224.18071292 326.9469668 223.33255481 321.43790669 222.48643303 315.92852592 C221.26306559 307.96280205 220.03515954 299.99778313 218.80613024 292.0329311 C216.81242958 279.11172466 214.82242122 266.18995238 212.8347168 253.26782227 C210.90337901 240.71218581 208.97031354 228.15681737 207.03491211 215.60180664 C206.91569501 214.82843751 206.79647791 214.05506838 206.67364817 213.25826382 C206.07558434 209.37865562 205.47748641 205.49905268 204.87937152 201.61945236 C199.91429416 169.41378154 194.95520147 137.20719184 190 105 C185.23762028 132.93791761 180.86572492 160.93154981 176.5589788 188.94285583 C175.62705687 195.00026981 174.6922917 201.05724498 173.75776672 207.11425781 C171.59872694 221.1106464 169.44279763 235.1075131 167.28739166 249.10446167 C164.52591237 267.0367803 161.76352265 284.96895778 158.99718696 302.90052795 C157.88849513 310.08791294 156.78165901 317.27558049 155.67627084 324.46347427 C154.99233678 328.90843274 154.30687517 333.35315464 153.62099648 337.79781342 C153.30307759 339.86013548 152.98580554 341.92255737 152.66921997 343.98508453 C152.23807621 346.79338344 151.80465183 349.60132109 151.37065125 352.40917969 C151.24536456 353.22898064 151.12007788 354.04878159 150.99099463 354.89342499 C150.45931258 358.31924592 149.84179099 361.63283604 149 365 C121.61 365 94.22 365 66 365 C60.25584183 336.27920916 60.25584183 336.27920916 58.48999023 326.57055664 C58.28006282 325.42607307 58.0701354 324.28158951 57.85384655 323.10242462 C57.17012643 319.37202589 56.4893133 315.64110358 55.80859375 311.91015625 C55.30965338 309.18270561 54.81012009 306.45536364 54.31063843 303.72801208 C53.10344497 297.13408026 51.89854508 290.53973136 50.69448566 283.94522661 C49.71039225 278.55577294 48.72529753 273.16650307 47.73959351 267.77734375 C37.34746694 210.95880226 27.00810916 154.13064618 16.68879235 97.29883969 C16.2569893 94.92091062 15.82511399 92.54299469 15.39321041 90.16508389 C15.11083908 88.61042724 14.82846788 87.05577058 14.5460968 85.50111389 C14.40805482 84.74110933 14.27001284 83.98110476 14.12778777 83.19806975 C13.31614066 78.72904864 12.50516688 74.25990597 11.69469398 69.79067177 C9.37252414 56.98707231 7.04548207 44.18464871 4.64990234 31.39453125 C4.47743705 30.47109673 4.30497175 29.5476622 4.12728024 28.59624481 C3.37028403 24.54413541 2.60885204 20.49301806 1.83564758 16.44396973 C1.5838308 15.10265881 1.33220321 13.76131235 1.08081055 12.41992188 C0.86909714 11.30806519 0.65738373 10.1962085 0.43925476 9.05065918 C0 6 0 6 0 0 Z " fill="#FFFFFF" transform="translate(70,297)"/>
<path d="M0 0 C185.55119418 0 185.55119418 0 211.30859375 25.1796875 C230.05595798 44.82496613 234.05870101 71.9074001 234 98 C233.34815305 122.45251195 227.91036511 148.14631326 210 166 C200.00818644 174.84107099 188.67126831 180.13418933 176 184 C176.99257812 184.20753906 177.98515625 184.41507813 179.0078125 184.62890625 C194.46246183 188.05263478 209.34352634 193.78800322 218.25 207.6875 C233.13290792 234.77356787 231.15375438 268.22130584 232.21508789 298.22851562 C232.5824101 308.28796087 233.07980478 318.32776462 233.875 328.36328125 C233.94130615 329.28449265 234.0076123 330.20570404 234.07592773 331.15483093 C234.8122613 339.76357821 236.43153209 348.15873942 242 355 C243.06742927 355.89433263 244.15133308 356.76933235 245.25 357.625 C246.1575 358.40875 247.065 359.1925 248 360 C248 361.32 248 362.64 248 364 C237.5255705 364.1853965 227.05153146 364.32752418 216.57579517 364.41449738 C211.71131742 364.45624213 206.84796237 364.51285479 201.98413086 364.60351562 C197.28968479 364.69047107 192.59631802 364.7382795 187.90112877 364.75901794 C186.11041962 364.77379512 184.31976932 364.8026537 182.52952003 364.84584045 C168.50262844 365.17074324 168.50262844 365.17074324 164.80496216 362.28977966 C163.4368814 360.18008904 162.65747292 358.41816007 162 356 C161.63390625 354.83597656 161.2678125 353.67195313 160.890625 352.47265625 C160.67921875 351.34730469 160.4678125 350.22195313 160.25 349.0625 C160.02828125 347.93972656 159.8065625 346.81695313 159.578125 345.66015625 C158.47135425 338.65310088 157.85382823 331.70193406 157.67456055 324.61303711 C157.65157898 323.8278772 157.62859741 323.04271729 157.60491943 322.23376465 C157.55554192 320.54462039 157.50758866 318.85543399 157.46094322 317.16621208 C157.35917073 313.54794168 157.24420767 309.9301253 157.1301012 306.3122263 C156.91849409 299.59980251 156.71180633 292.88733635 156.52856445 286.17407227 C156.39997227 281.48172402 156.25397634 276.79018054 156.09711647 272.09869576 C156.0410549 270.3286049 155.9911299 268.5583069 155.94794273 266.78785515 C155.54405072 250.43392718 154.23970636 231.74955717 141.9375 219.625 C122.49888525 205.35361196 96.63954831 211.44391271 74 211 C74 261.49 74 311.98 74 364 C49.58 364 25.16 364 0 364 C0 243.88 0 123.76 0 0 Z M74 55 C74 89.32 74 123.64 74 159 C113.41822194 160.83835097 113.41822194 160.83835097 147.3125 144.3125 C158.32671991 132.56547917 159.79732759 115.35235957 159.34375 99.98046875 C158.65626284 87.23985844 155.23383835 75.06191897 145.86328125 65.9140625 C125.54388553 49.10534772 99.44143034 55 74 55 Z " fill="#FFFFFF" transform="translate(1241,297)"/>
<path d="M0 0 C2.69395712 0.01608042 5.38641016 0.00005064 8.08032227 -0.01904297 C37.61393973 -0.05524603 66.3590711 6.72829863 88.11743164 27.65673828 C110.99164103 51.43646715 115.76196289 84.80888643 115.76196289 116.39111328 C92.33196289 116.39111328 68.90196289 116.39111328 44.76196289 116.39111328 C42.78196289 104.01611328 42.78196289 104.01611328 40.76196289 91.39111328 C36.65151246 78.28210921 30.65611887 66.38108879 18.59399414 59.07861328 C10.09866501 54.98036405 -1.14413751 54.91848357 -10.17553711 57.45361328 C-22.03599151 62.29738664 -28.81797848 72.29036487 -33.79272461 83.59423828 C-45.87384653 114.03154947 -45.62788351 149.31042485 -45.49598694 181.47108459 C-45.48790214 183.55083206 -45.48295995 185.63056869 -45.4786377 187.71032715 C-47.71013519 255.32074436 -47.71013519 255.32074436 -20.57788086 314.32861328 C-11.68500383 322.16740973 -2.60308974 323.10144717 8.81762695 322.5703125 C16.63648333 321.84968962 22.97833723 317.38826265 28.76196289 312.39111328 C29.35750977 311.88966797 29.95305664 311.38822266 30.56665039 310.87158203 C41.95099751 300.47387833 47.07707177 285.13629014 47.8873291 270.0581665 C47.97105019 267.51298138 48.02992509 264.96845955 48.07836914 262.42236328 C48.10634583 261.19598145 48.10634583 261.19598145 48.1348877 259.94482422 C48.20254462 256.92701737 48.26309931 253.90905465 48.32446289 250.89111328 C48.46883789 244.12611328 48.61321289 237.36111328 48.76196289 230.39111328 C32.59196289 230.39111328 16.42196289 230.39111328 -0.23803711 230.39111328 C-0.23803711 212.24111328 -0.23803711 194.09111328 -0.23803711 175.39111328 C39.36196289 175.39111328 78.96196289 175.39111328 119.76196289 175.39111328 C119.76196289 240.40111328 119.76196289 305.41111328 119.76196289 372.39111328 C101.61196289 372.39111328 83.46196289 372.39111328 64.76196289 372.39111328 C64.43196289 361.83111328 64.10196289 351.27111328 63.76196289 340.39111328 C61.12196289 344.02111328 58.48196289 347.65111328 55.76196289 351.39111328 C46.73834444 361.93004436 35.86353041 368.94730675 22.76196289 373.39111328 C21.60825195 373.78556641 20.45454102 374.18001953 19.26586914 374.58642578 C-7.24095116 382.45108675 -42.37304089 379.51883457 -66.86303711 367.05517578 C-90.59267117 353.63310151 -103.17138266 330.71696676 -110.47241211 305.23046875 C-118.34475894 276.03550905 -119.93802134 245.43494376 -120.80053711 215.32861328 C-120.82138367 214.61533875 -120.84223022 213.90206421 -120.8637085 213.16717529 C-124.83370036 75.39658969 -124.83370036 75.39658969 -80.69897461 27.79736328 C-58.90460769 6.48731563 -29.60202875 -0.20931541 0 0 Z " fill="#FFFFFF" transform="translate(850.238037109375,289.60888671875)"/>
<path d="M0 0 C0.85667267 0.00359528 1.71334534 0.00719055 2.59597778 0.01089478 C3.4934523 0.01074875 4.39092682 0.01060272 5.31559753 0.01045227 C8.29702123 0.01115175 11.27838329 0.01894575 14.25979614 0.02676392 C16.32102932 0.02862797 18.38226293 0.03005193 20.4434967 0.03105164 C25.88017999 0.03487779 31.31683675 0.04470891 36.75350952 0.05575562 C42.29661704 0.06596764 47.83972882 0.07054881 53.38284302 0.07559204 C64.26762033 0.08633109 75.15237791 0.10340868 86.03713989 0.12442017 C92.11436707 21.8437166 97.90448364 43.63440378 103.63690186 65.44683838 C106.02105873 74.51879616 108.4109234 83.58925143 110.80023384 92.65985298 C111.62036744 95.77349317 112.44032024 98.88718093 113.26026917 102.00086975 C118.43584918 121.65176166 123.63888551 141.29533066 128.84963989 160.93692017 C130.64922598 167.72074597 132.44871242 174.50459821 134.24807739 181.28848267 C134.47582918 182.14709208 134.70358097 183.00570148 134.93823433 183.89032936 C138.63243154 197.81791436 142.31970021 211.74732537 146.00393295 225.67754936 C146.88879997 229.02322661 147.77376114 232.36887894 148.65875244 235.71452332 C149.2502137 237.95052081 149.84167488 240.18651833 150.43313599 242.42251587 C150.72628 243.53072976 151.01942402 244.63894365 151.32145119 245.78073978 C152.78780311 251.32436609 154.25392397 256.86805331 155.71957397 262.41186523 C163.85138404 293.1702545 163.85138404 293.1702545 172.08401489 323.90176392 C172.45415396 325.27565567 172.82427664 326.64955184 173.19438171 328.02345276 C174.81461485 334.03535245 176.44096229 340.04551509 178.07791138 346.05288696 C178.62043254 348.05846918 179.16284071 350.06408197 179.70510864 352.06973267 C179.94739197 352.94979477 180.18967529 353.82985687 180.43930054 354.73658752 C180.65358704 355.5324678 180.86787354 356.32834808 181.08865356 357.14834595 C181.27368942 357.82664459 181.45872528 358.50494324 181.64936829 359.20379639 C182.03713989 361.12442017 182.03713989 361.12442017 182.03713989 365.12442017 C156.62713989 365.12442017 131.21713989 365.12442017 105.03713989 365.12442017 C103.40594105 361.04642306 102.35751984 357.52356255 101.43313599 353.27041626 C101.28654037 352.60150864 101.13994476 351.93260101 100.98890686 351.24342346 C100.50849057 349.04581472 100.03437312 346.84690247 99.56057739 344.64785767 C99.22742327 343.11513038 98.89397363 341.5824673 98.5602417 340.04986572 C97.86325754 336.84451407 97.16929379 333.63852813 96.47756958 330.43203735 C95.59045938 326.32062864 94.69669443 322.2107016 93.80078697 318.10120201 C93.11214471 314.93962103 92.42657922 311.77737924 91.74199295 308.61491776 C91.41350635 307.09885912 91.08416215 305.58298604 90.75394821 304.0673027 C90.2936858 301.95206186 89.83746427 299.83598964 89.38235474 297.71963501 C89.12191376 296.51560028 88.86147278 295.31156555 88.59313965 294.07104492 C88.03713989 291.12442017 88.03713989 291.12442017 88.03713989 288.12442017 C56.35713989 288.45442017 24.67713989 288.78442017 -7.96286011 289.12442017 C-13.18522382 313.01331293 -13.18522382 313.01331293 -18.40402222 336.90298462 C-19.41513062 341.52322388 -19.41513062 341.52322388 -19.88890076 343.68611145 C-20.21945871 345.19668136 -20.54936919 346.70739304 -20.87876892 348.21821594 C-21.37785213 350.50670403 -21.87898832 352.79473376 -22.38058472 355.08267212 C-22.52688041 355.75576825 -22.6731761 356.42886438 -22.82390499 357.12235737 C-23.42391358 359.85038135 -24.07851835 362.47139491 -24.96286011 365.12442017 C-50.37286011 365.12442017 -75.78286011 365.12442017 -101.96286011 365.12442017 C-101.2960129 359.12279527 -100.54787005 353.80243525 -98.99533081 348.0663147 C-98.79593053 347.30883595 -98.59653025 346.55135721 -98.39108753 345.77092457 C-97.72970325 343.26470149 -97.05920403 340.76101414 -96.38864136 338.25723267 C-95.91232061 336.45973844 -95.43657624 334.66209139 -94.96136475 332.86430359 C-93.67571448 328.00690889 -92.38217637 323.15164624 -91.08724594 318.2967186 C-89.71527023 313.14720218 -88.350785 307.99570167 -86.98556519 302.84439087 C-84.73600948 294.35974054 -82.48238317 285.87618196 -80.22555542 277.39346313 C-77.28444023 266.33823603 -74.35196859 255.28073822 -71.42379761 244.22207642 C-70.54249002 240.89410357 -69.66113268 237.56614389 -68.77975464 234.2381897 C-68.56316633 233.42035633 -68.34657803 232.60252296 -68.12342644 231.75990677 C-65.89102577 223.3312186 -63.65522969 214.90343177 -61.41953659 206.47561646 C-56.18469673 186.74149399 -50.96013151 167.00466072 -45.7379427 147.26718712 C-45.45211417 146.18689043 -45.16628565 145.10659374 -44.87179565 143.99356079 C-44.5851942 142.91033854 -44.29859274 141.82711628 -44.00330639 140.71106911 C-40.30879707 126.74812132 -36.61146546 112.78592075 -32.91386414 98.8237915 C-29.92163984 87.52475918 -26.93137949 76.22521098 -23.94374943 64.924963 C-21.942933 57.35794359 -19.93964301 49.79158188 -17.93434811 42.22574806 C-16.77703814 37.85898094 -15.6208936 33.4919134 -14.4677124 29.12405396 C-13.41092076 25.12136788 -12.35102231 21.11951853 -11.28856087 17.11833382 C-10.90322485 15.66489067 -10.51907027 14.21113373 -10.13616753 12.75704765 C-9.61913919 10.79428323 -9.09753857 8.83272487 -8.57565308 6.87124634 C-8.28624847 5.77769333 -7.99684387 4.68414032 -7.69866943 3.55744934 C-6.3483557 -0.90750183 -4.34956148 0.00771034 0 0 Z M39.03713989 65.12442017 C34.59909233 85.65490165 30.16573874 106.18639168 25.73799133 126.71909714 C23.68206408 136.25247524 21.62459442 145.78551559 19.56350708 155.31777954 C17.76734646 163.62481039 15.97406594 171.93245678 14.18426037 180.24085927 C13.23622491 184.64121522 12.28673713 189.04124656 11.33380127 193.44054413 C10.4372431 197.57978959 9.54453304 201.71984603 8.65478897 205.86056137 C8.32727258 207.38144726 7.99834199 208.90202939 7.6679039 210.42228317 C7.21743818 212.49576219 6.77204402 214.57026779 6.32791138 216.64511108 C6.07718369 217.80657024 5.82645599 218.9680294 5.56813049 220.1646843 C4.91941627 223.27944542 4.91941627 223.27944542 5.03713989 227.12442017 C28.13713989 227.12442017 51.23713989 227.12442017 75.03713989 227.12442017 C71.02680199 207.00531418 71.02680199 207.00531418 66.83914185 186.92544556 C66.55582514 185.59499489 66.2726264 184.26451909 65.98953247 182.934021 C65.08718955 178.69620069 64.18148429 174.45910262 63.27542114 170.22207642 C62.95938452 168.74331895 62.6433618 167.26455852 62.32735252 165.78579521 C61.01519614 159.64667152 59.70220844 153.50772682 58.38671589 147.36931705 C56.51650192 138.64241915 54.65156924 129.91442969 52.79371101 121.18489271 C51.47569171 114.99389763 50.15197129 108.80413869 48.82392091 102.61528772 C48.03440477 98.93536623 47.24738196 95.2549531 46.46645546 91.57319832 C45.60151599 87.49611199 44.72480973 83.42164541 43.84695435 79.34732056 C43.5908287 78.13143753 43.33470306 76.9155545 43.07081604 75.66282654 C42.83128204 74.56029541 42.59174805 73.45776428 42.34495544 72.32182312 C42.13943715 71.36060075 41.93391886 70.39937838 41.72217274 69.40902805 C41.18283294 66.95396428 41.18283294 66.95396428 39.03713989 65.12442017 Z " fill="#FFFFFF" transform="translate(535.9628601074219,296.8755798339844)"/>
<path d="M0 0 C67.32 0 134.64 0 204 0 C204 20.13 204 40.26 204 61 C161.1 61 118.2 61 74 61 C74 89.05 74 117.1 74 146 C114.59 146 155.18 146 197 146 C197 166.13 197 186.26 197 207 C156.41 207 115.82 207 74 207 C74 239.01 74 271.02 74 304 C118.88 304 163.76 304 210 304 C210 323.8 210 343.6 210 364 C194.90169734 364.1263834 179.80340752 364.25262706 164.70505714 364.37283897 C153.68965869 364.46058285 153.68965869 364.46058285 142.67429352 364.55238724 C95.11333964 364.95708551 47.56508657 365 0 365 C0 244.55 0 124.1 0 0 Z " fill="#FFFFFF" transform="translate(1006,297)"/>
<path d="M0 0 C27.72 0 55.44 0 84 0 C94.39592265 29.56340504 104.52028535 59.20810468 114.52148438 88.90649414 C118.86710039 101.80863598 123.21345996 114.71037663 127.66015625 127.578125 C128.15339638 129.01402985 128.15339638 129.01402985 128.65660095 130.47894287 C128.95433914 131.33570618 129.25207733 132.19246948 129.55883789 133.07519531 C129.81516495 133.81554016 130.071492 134.55588501 130.33558655 135.31866455 C130.87356657 137.00614967 130.87356657 137.00614967 132 138 C132.36560028 136.98050514 132.36560028 136.98050514 132.73858643 135.94041443 C143.77405636 105.17068927 154.8238085 74.40644595 166 43.6875 C166.4077063 42.56656952 166.8154126 41.44563904 167.23547363 40.29074097 C168.40632817 37.0724949 169.57794379 33.85452735 170.75 30.63671875 C171.07836853 29.73479797 171.40673706 28.8328772 171.74505615 27.90362549 C175.13952124 18.59350554 178.57411995 9.29881728 182 0 C208.73 0 235.46 0 263 0 C259.62495385 10.12513845 259.62495385 10.12513845 257.92895508 14.09008789 C257.54521225 14.99200867 257.16146942 15.89392944 256.76609802 16.82318115 C256.35473099 17.78000793 255.94336395 18.73683472 255.51953125 19.72265625 C254.85843102 21.2720993 254.85843102 21.2720993 254.18397522 22.85284424 C252.73024399 26.25753901 251.27141783 29.66002484 249.8125 33.0625 C248.78177703 35.47342885 247.7513462 37.88448262 246.72119141 40.2956543 C244.02309941 46.60882166 241.31989048 52.91978866 238.61541748 59.23022461 C237.04498667 62.89464672 235.47574369 66.5595767 233.90673828 70.22460938 C226.03323872 88.6158777 218.15187724 107.00377908 210.2578125 125.38623047 C209.8090979 126.43117172 209.3603833 127.47611298 208.89807129 128.55271912 C208.08565347 130.44444179 207.27309683 132.33610486 206.46032715 134.22767639 C206.07574341 135.12312668 205.69115967 136.01857697 205.29492188 136.94116211 C204.86457642 137.93864471 204.43423096 138.93612732 203.99084473 139.96383667 C202.68664392 143.00203022 201.41480465 146.05306919 200.14489746 149.10574341 C196.27410967 158.34914793 192.36942301 167.48591579 187.68701744 176.35207653 C168.096513 213.5292408 167.0102843 246.8498977 167.97002256 287.88043189 C168.19626425 297.78665434 168.23788867 307.69394616 168.2939949 317.602314 C168.38612571 333.07282599 168.71078443 348.52900384 169 364 C144.25 364 119.5 364 94 364 C94.22236328 349.06492187 94.22236328 349.06492187 94.44921875 333.828125 C94.50085566 327.42040461 94.54747404 321.0132571 94.57226562 314.60546875 C94.61228685 304.49216708 94.67016644 294.38175492 94.8605957 284.27001953 C95.56091175 246.00596751 95.59857247 213.59160432 76.34463501 179.29510498 C72.90554705 173.1238669 70.29785583 166.66006002 67.640625 160.12109375 C66.7361912 157.9840779 65.82809362 155.84860826 64.91601562 153.71484375 C64.26306519 152.17739502 64.26306519 152.17739502 63.59692383 150.60888672 C61.18705271 144.93474754 58.77295303 139.26240689 56.359375 133.58984375 C55.88967285 132.48567108 55.4199707 131.38149841 54.93603516 130.24386597 C50.85727565 120.65807526 46.75578049 111.08217118 42.64544678 101.5098877 C38.5568391 91.98632801 34.48758602 82.45465646 30.4296875 72.91796875 C29.69000481 71.17971329 29.69000481 71.17971329 28.93537903 69.40634155 C26.91281307 64.65293888 24.89037889 59.8994805 22.86886597 55.14562988 C15.80107322 38.52277809 15.80107322 38.52277809 8.63671875 21.94140625 C8.3206366 21.21551804 8.00455444 20.48962982 7.67889404 19.741745 C6.27625035 16.52389466 4.86805127 13.30870104 3.45263672 10.09643555 C2.98486816 9.02820557 2.51709961 7.95997559 2.03515625 6.859375 C1.6369165 5.95670898 1.23867676 5.05404297 0.82836914 4.12402344 C0 2 0 2 0 0 Z " fill="#FFFFFF" transform="translate(1670,297)"/>
<path d="M0 0 C24.42 0 48.84 0 74 0 C74 100.32 74 200.64 74 304 C116.9 304 159.8 304 204 304 C204 323.8 204 343.6 204 364 C136.68 364 69.36 364 0 364 C0 243.88 0 123.76 0 0 Z " fill="#FFFFFF" transform="translate(1515,297)"/>
<path d="M0 0 C64.3626943 0 64.3626943 0 74 8 C81.46605915 15.88930514 83.54566132 23.85105723 83.48779297 34.49536133 C83.20222465 42.3091604 81.37768757 49.26113396 76.02734375 55.18359375 C74.08571455 56.92924542 72.12379792 58.48420784 70 60 C68.6663884 60.99962887 67.332977 61.99952506 66 63 C66.64066406 63.1959375 67.28132813 63.391875 67.94140625 63.59375 C76.55695496 66.57259844 81.4018754 71.21938235 85.4375 79.375 C88.79312495 88.71867983 88.46963662 101.55094709 85.03515625 110.83203125 C80.17998773 121.00040306 73.55447421 126.6759728 63.37109375 131.23828125 C43.25192611 137.70160529 21.13185898 133 0 133 C0 89.11 0 45.22 0 0 Z " fill="#FDFEFE" transform="translate(1425,776)"/>
<path d="M0 0 C24.75 0 49.5 0 75 0 C75 7.26 75 14.52 75 22 C59.16 22 43.32 22 27 22 C27 32.23 27 42.46 27 53 C41.85 53 56.7 53 72 53 C72 60.26 72 67.52 72 75 C57.15 75 42.3 75 27 75 C27 86.88 27 98.76 27 111 C43.17 111 59.34 111 76 111 C76 118.26 76 125.52 76 133 C50.92 133 25.84 133 0 133 C0 89.11 0 45.22 0 0 Z " fill="#FDFEFE" transform="translate(1524,776)"/>
<path d="M0 0 C28.05 0 56.1 0 85 0 C85 7.26 85 14.52 85 22 C75.43 22 65.86 22 56 22 C56 58.63 56 95.26 56 133 C47.09 133 38.18 133 29 133 C29 96.37 29 59.74 29 22 C19.43 22 9.86 22 0 22 C0 14.74 0 7.48 0 0 Z " fill="#FEFEFE" transform="translate(1603,776)"/>
<path d="M0 0 C21.66666667 0 21.66666667 0 26.8359375 4.65234375 C31.23928429 9.5415058 32.16553889 13.20341802 32.25 19.8125 C32.27578125 21.01519531 32.3015625 22.21789062 32.328125 23.45703125 C31.83392006 28.79326796 30.02386384 31.95232537 26.3125 35.75 C18.51124066 41.63881469 9.50326729 40 0 40 C0 26.8 0 13.6 0 0 Z " fill="#04B1EB" transform="translate(1452,849)"/>
<path d="M0 0 C20.92307692 0 20.92307692 0 26.5 5.4375 C29.38172124 10.36044045 29.51958259 15.40740193 29 21 C27.3873916 26.17732172 25.68127635 29.19123419 21 32 C13.6240698 34.63426079 8.3967139 34 0 34 C0 22.78 0 11.56 0 0 Z " fill="#04B1EB" transform="translate(1452,796)"/>
</svg>
